<svg width="70" height="64" viewBox="0 0 70 64" fill="none" xmlns="http://www.w3.org/2000/svg">
<g clip-path="url(#clip0_1720_280)">
<rect width="70" height="64" fill="#D5D6D9"/>
<path d="M32.7728 38.2515C32.5986 38.2515 32.4245 38.1874 32.287 38.0499L26.7228 32.4857C26.457 32.2199 26.457 31.7799 26.7228 31.514L32.287 25.9499C32.5528 25.684 32.9928 25.684 33.2586 25.9499C33.5245 26.2157 33.5245 26.6557 33.2586 26.9215L28.1803 31.9999L33.2586 37.0782C33.5245 37.344 33.5245 37.784 33.2586 38.0499C33.1303 38.1874 32.947 38.2515 32.7728 38.2515Z" fill="white"/>
<path d="M42.7918 32.6875H27.3643C26.9884 32.6875 26.6768 32.3758 26.6768 32C26.6768 31.6242 26.9884 31.3125 27.3643 31.3125H42.7918C43.1676 31.3125 43.4793 31.6242 43.4793 32C43.4793 32.3758 43.1676 32.6875 42.7918 32.6875Z" fill="white"/>
</g>
<defs>
<clipPath id="clip0_1720_280">
<rect width="70" height="64" fill="white"/>
</clipPath>
</defs>
</svg>
