<svg width="70" height="64" viewBox="0 0 70 64" fill="none" xmlns="http://www.w3.org/2000/svg">
<g clip-path="url(#clip0_1720_55849)">
<rect width="70" height="64" fill="#43BBED"/>
<path d="M37.2277 38.2515C37.0535 38.2515 36.8794 38.1874 36.7419 38.0499C36.476 37.784 36.476 37.344 36.7419 37.0782L41.8202 31.9999L36.7419 26.9215C36.476 26.6557 36.476 26.2157 36.7419 25.9499C37.0077 25.684 37.4477 25.684 37.7135 25.9499L43.2777 31.514C43.5435 31.7799 43.5435 32.2199 43.2777 32.4857L37.7135 38.0499C37.576 38.1874 37.4019 38.2515 37.2277 38.2515Z" fill="white"/>
<path d="M42.636 32.6875H27.2085C26.8327 32.6875 26.521 32.3758 26.521 32C26.521 31.6242 26.8327 31.3125 27.2085 31.3125H42.636C43.0118 31.3125 43.3235 31.6242 43.3235 32C43.3235 32.3758 43.0118 32.6875 42.636 32.6875Z" fill="white"/>
</g>
<defs>
<clipPath id="clip0_1720_55849">
<rect width="70" height="64" fill="white"/>
</clipPath>
</defs>
</svg>
