<svg width="152" height="92" viewBox="0 0 152 92" fill="none" xmlns="http://www.w3.org/2000/svg">
<g id="beatles">
<path id="Vector" fill-rule="evenodd" clip-rule="evenodd" d="M64.7894 15.3588V18.6997C64.7894 26.9357 64.8051 31.5868 64.8443 32.6511C64.8773 33.5575 65.0264 34.257 65.283 34.7503C65.4478 35.0459 65.7414 35.3602 66.162 35.6955H59.1884C59.4804 35.3407 59.7739 34.9969 60.0674 34.6616C60.4142 34.1294 60.5971 33.4486 60.6159 32.6216C60.6709 31.4195 60.6983 26.7989 60.6983 18.758V15.2701C60.6983 12.6887 60.6709 11.093 60.6159 10.4822L59.1335 10.4231C58.5119 10.4037 57.9257 10.6199 57.3763 11.0735C56.9738 11.4081 56.6897 11.7831 56.5249 12.1962C56.5249 11.9208 56.6073 11.5356 56.7721 11.0423C56.9738 10.4316 57.1103 9.93824 57.1841 9.56403C57.2571 9.30808 57.3944 8.70579 57.5953 7.7597C58.0159 7.74027 58.7301 7.74027 59.737 7.7597H62.3723C64.8067 7.7597 66.5552 7.69804 67.617 7.57471C67.635 7.97257 67.8093 8.75732 68.1389 9.92979C68.3398 10.5067 68.5689 11.2619 68.8256 12.1962C68.3853 11.6252 68.0565 11.2509 67.8367 11.0735C67.2809 10.6112 66.5887 10.3803 65.8873 10.4231L64.7619 10.4822C64.7784 10.8573 64.7784 11.5179 64.7619 12.4623C64.7792 13.7817 64.7894 14.7481 64.7894 15.3588Z" fill="#333333"/>
<path id="Vector_2" fill-rule="evenodd" clip-rule="evenodd" d="M79.1262 20.2074V25.8206C79.1262 30.6845 80.2602 34.0034 79.6198 34.0034H75.1183C75.4103 33.0767 75.5578 31.9043 75.5578 30.4851V23.0946H71.2752L71.2478 29.8938C71.2478 31.8646 71.3843 33.2339 71.659 34.0026H67.2383C67.5491 33.097 67.7061 32.0141 67.7061 30.7529V20.2665C67.7061 17.8439 67.6872 16.3276 67.6511 15.7177C67.6142 14.753 67.4769 13.9058 67.2391 13.1768H71.6049C71.3851 14.0029 71.276 15.0841 71.276 16.4213V20.3746H75.5586C75.568 18.507 75.568 17.0118 75.5586 15.89C75.5398 14.8485 75.4212 13.9446 75.2023 13.1768H79.6771C79.5853 13.3736 79.4582 13.8466 79.2942 14.5942C79.1811 15.6974 79.1262 17.5685 79.1262 20.2074Z" fill="#333333"/>
<path id="Vector_3" fill-rule="evenodd" clip-rule="evenodd" d="M84.4881 23.609L84.4331 29.6082C84.4222 30.8491 84.4379 31.5494 84.4606 31.7065C84.5108 32.0419 84.6984 32.2083 85.0092 32.2083C85.1198 32.2083 85.3568 32.1787 85.7233 32.1196C86.9131 31.9422 87.6806 31.7749 88.0298 31.617C88.4865 31.4007 89.1089 30.8593 89.8968 29.9917C89.7861 30.8947 89.5931 32.2108 89.3192 33.9391H85.1748H82.5661C81.6881 33.9186 80.8097 33.9186 79.9316 33.9391C80.0776 33.5446 80.1694 33.2692 80.2063 33.1113C80.2966 32.8156 80.3523 32.4321 80.3703 31.9582C80.4253 30.8947 80.4527 28.8851 80.4527 25.9295V20.6677C80.4527 19.1902 80.4433 17.7314 80.4253 16.2929C80.3884 15.3071 80.3334 14.6178 80.2612 14.2233C80.2228 14.007 80.0956 13.6522 79.8767 13.1589C80.2063 13.1395 80.7274 13.1395 81.4416 13.1589H89.32C89.338 13.1792 89.2941 13.6843 89.1834 14.6744L88.9904 16.2785C88.7526 15.8848 88.5595 15.6542 88.4144 15.585C88.2692 15.5157 87.9301 15.4616 87.3996 15.4219C86.4212 15.3617 85.4407 15.3519 84.4614 15.3924V21.1255H85.7798C86.6211 21.1255 87.1516 21.1069 87.3722 21.0664C87.7329 21.022 88.0798 20.8906 88.3869 20.682L88.3822 22.1603C88.3822 23.4409 88.3837 24.0804 88.3869 24.0804C88.022 23.7653 87.3447 23.6073 86.3559 23.6073H84.4881V23.609ZM9.32555 49.188V30.4234C9.32555 22.9805 9.29337 17.6224 9.23216 14.35C9.16859 11.0767 8.95042 8.47578 8.57608 6.54728C8.24334 5.24725 7.9098 3.94723 7.57784 2.64551H20.4443C23.3159 2.64551 25.3783 3.07209 26.6276 3.92357C28.5849 5.27006 30.0422 8.00612 30.9989 12.1326C31.5404 14.736 31.8111 17.6056 31.8111 20.7462C31.8111 26.5326 30.9785 31.0189 29.3132 34.2035C28.2302 36.1768 27.0004 37.4092 25.6286 37.9034C26.9604 38.3536 27.8982 38.7574 28.4397 39.1156C29.5635 39.8344 30.4801 40.8658 31.188 42.2115C32.9773 45.4409 33.8728 50.1291 33.8728 56.2727C33.8728 64.8425 32.311 70.8079 29.1884 74.1716C27.2311 76.3248 24.774 77.3562 21.8177 77.265C18.1944 77.1678 13.696 77.0436 8.32652 76.8967H7.85722H8.01261H7.07715C8.32652 75.2832 9.01321 73.0853 9.1372 70.3053C9.26277 66.7659 9.32555 59.7243 9.32555 49.188ZM17.1969 7.98331V32.5225C17.988 33.0606 18.8818 33.3292 19.8817 33.3292C21.0047 33.3292 22.0053 32.3882 22.8803 30.5053C23.9625 28.3555 24.504 25.5764 24.504 22.1687C24.504 18.0913 24.1705 14.7293 23.505 12.0844C22.6716 8.90237 21.485 7.37934 19.9444 7.5128C19.2366 7.60234 18.3199 7.75946 17.1969 7.98331ZM17.2581 40.7924V67.1469C17.2581 69.2088 17.5077 70.633 18.0076 71.4186C18.5067 72.2025 19.4437 72.5489 20.8187 72.4593C24.4828 72.2811 26.3153 66.7228 26.3153 55.7862C26.3153 52.3346 25.7322 48.9507 24.566 45.6326C23.2335 41.8229 21.6506 39.9181 19.8189 39.9181C19.7773 39.9181 18.9234 40.2095 17.2581 40.7924Z" fill="#333333"/>
<path id="Vector_4" fill-rule="evenodd" clip-rule="evenodd" d="M42.2784 57.5781L42.1756 68.8264C42.1544 71.1528 42.1827 72.4663 42.2266 72.7594C42.3208 73.3896 42.6724 73.7013 43.2563 73.7013C43.4627 73.7013 43.9092 73.6472 44.5959 73.5349C46.8255 73.2029 48.2663 72.8895 48.9192 72.593C49.7778 72.1884 50.944 71.1722 52.4194 69.5461C52.213 71.2423 51.8536 73.7106 51.3395 76.9543H43.5655H38.6747C36.6837 76.9163 35.0364 76.9163 33.7337 76.9543C34.0076 76.2152 34.1787 75.6991 34.2485 75.4C34.4196 74.8476 34.5232 74.1262 34.5585 73.2384C34.6605 71.244 34.7131 67.474 34.7131 61.9301V52.0604C34.7131 49.2905 34.6959 46.5545 34.6621 43.8564C34.5923 42.009 34.4887 40.7149 34.3521 39.9766C34.2823 39.5694 34.0421 38.9038 33.6309 37.9805C34.2477 37.9433 35.2264 37.9433 36.5652 37.9805H51.3403C51.3733 38.0177 51.2877 38.9663 51.0829 40.8247L50.7219 43.8361C50.2761 43.097 49.9151 42.6645 49.642 42.5344C49.3674 42.4043 48.7317 42.3038 47.7366 42.2286C46.1231 42.1188 44.2875 42.1002 42.2282 42.1737V52.9237H44.6987C46.2761 52.9237 47.2712 52.8873 47.684 52.8113C48.3354 52.7387 48.971 52.4979 49.5887 52.0916L49.6059 54.8615C49.6059 57.2622 49.5989 58.4634 49.5887 58.4634C48.902 57.8729 47.633 57.5772 45.7801 57.5772L42.2784 57.5781Z" fill="#333333"/>
<path id="Vector_5" fill-rule="evenodd" clip-rule="evenodd" d="M69.0798 53.3599L70.4689 61.2184C72.1852 70.9572 73.7807 76.2156 75.256 76.9877H70.8809C70.9821 76.9877 70.2279 76.9395 68.6152 76.8407C67.4145 76.7681 66.2813 76.8162 65.2179 76.9877L65.8881 75.8093C65.8536 74.7618 65.648 72.3839 65.2705 68.6773H59.0417C58.3887 72.2707 58.063 74.4054 58.063 75.0786C58.063 75.9774 58.2506 76.6143 58.6289 76.9877C58.2851 76.9514 57.6165 76.9514 56.6222 76.9877H50.187C51.113 76.4369 51.8507 75.1082 52.4 73.0048C52.8113 71.5662 53.6871 67.3604 55.0251 60.388L56.4676 52.9739C57.0161 50.3536 57.5639 47.7358 58.1141 45.1171C58.5943 42.8668 58.8353 41.2812 58.8353 40.358C58.8353 39.0681 58.3895 38.2554 57.4964 37.9243H68.9252C67.5872 38.4404 66.9185 39.5116 66.9185 41.1334C66.9185 42.0567 67.1414 43.6237 67.5872 45.836C68.4779 50.3738 68.9754 52.8818 69.0798 53.3599ZM59.9677 61.3814H64.2401L62.18 47.0853L59.9677 61.3814Z" fill="#333333"/>
<path id="Vector_6" fill-rule="evenodd" clip-rule="evenodd" d="M83.9623 57.0828V65.8552C83.9623 75.0678 84.0298 81.0704 84.1067 83.863C84.1727 86.2435 84.3932 88.0816 84.8272 89.3749C85.1152 90.1503 85.6426 90.9781 86.4132 91.8575H74.665C75.1761 90.9564 75.6807 90.0511 76.1789 89.1417C76.8028 87.7445 77.1387 85.9571 77.1857 83.7845C77.2823 80.6286 77.3317 74.7037 77.3317 66.009V56.8488C77.3317 50.0699 77.2831 45.8784 77.1857 44.2734L74.592 44.1171C73.4871 44.0656 72.4535 44.6358 71.4922 45.8243C70.8679 46.7058 70.4036 47.7059 70.1235 48.7724C70.1235 47.9936 70.2687 46.8777 70.5567 45.4239C70.8439 43.3484 71.037 41.8938 71.1335 41.0626C71.2771 40.6487 71.5165 39.325 71.8532 37.0916C72.6215 37.0401 73.87 37.0401 75.6013 37.0916H80.2142C84.1538 37.0916 87.0614 36.9387 88.9355 36.6304C88.9355 37.1009 89.2463 38.9027 89.8718 42.0358C90.2076 43.8122 90.5922 46.0575 91.0246 48.7733C90.2555 47.2747 89.6787 46.2915 89.2957 45.8252C88.2857 44.5843 87.1572 44.0158 85.9086 44.118L83.9623 44.2743C83.9945 45.2584 83.9945 46.9917 83.9623 49.4744C83.9945 52.9428 83.9945 55.4787 83.9623 57.0828ZM98.9117 51.3953L98.8073 58.8804V67.804C98.8073 69.9488 98.8591 71.2986 98.9619 71.8528C99.1691 72.5556 99.6148 72.9053 100.301 72.9053C100.677 72.9053 101.382 72.7963 102.411 72.5733C103.853 72.2777 105.106 71.6492 106.169 70.6896C106.785 70.0248 107.386 69.36 107.972 68.6952C107.594 70.7225 107.164 73.4882 106.684 76.987C105.447 76.9127 103.698 76.9127 101.433 76.987H91.0348C91.4452 76.0646 91.7034 75.1404 91.8055 74.2172C92.0464 72.6299 92.1657 66.4229 92.1657 55.6003V45.0725C92.1657 41.9327 91.8408 39.5497 91.1894 37.9245H99.9413C99.7694 38.2581 99.5976 38.6087 99.4265 38.9779C99.2546 39.3478 99.1502 39.8471 99.1157 40.4747C99.082 40.8075 99.0129 44.4483 98.9117 51.3953Z" fill="#333333"/>
<path id="Vector_7" fill-rule="evenodd" clip-rule="evenodd" d="M115.283 57.5781L115.18 68.8264C115.159 71.1528 115.186 72.4663 115.23 72.7594C115.324 73.3896 115.676 73.7013 116.26 73.7013C116.466 73.7013 116.911 73.6472 117.598 73.5349C119.828 73.2029 121.269 72.8895 121.922 72.593C122.781 72.1884 123.945 71.1722 125.423 69.5461C125.216 71.2423 124.857 73.7106 124.342 76.9543H116.568H111.678C109.687 76.9163 108.039 76.9163 106.736 76.9543C107.011 76.2152 107.182 75.6991 107.251 75.4C107.423 74.8476 107.525 74.1262 107.561 73.2384C107.662 71.244 107.715 67.474 107.715 61.9301V52.0604C107.715 49.2905 107.697 46.5545 107.665 43.8564C107.594 42.009 107.49 40.7149 107.355 39.9766C107.284 39.5694 107.045 38.9038 106.633 37.9805C107.249 37.9433 108.229 37.9433 109.567 37.9805H124.342C124.375 38.0177 124.289 38.9663 124.085 40.8247L123.723 43.8361C123.278 43.097 122.917 42.6645 122.643 42.5344C122.368 42.4043 121.734 42.3038 120.739 42.2286C119.124 42.1188 117.289 42.1002 115.23 42.1737V52.9237H117.7C119.277 52.9237 120.272 52.8873 120.685 52.8113C121.338 52.7387 121.972 52.4979 122.59 52.0916L122.608 54.8615C122.608 57.2622 122.6 58.4634 122.59 58.4634C121.905 57.8729 120.634 57.5772 118.782 57.5772L115.283 57.5781Z" fill="#333333"/>
<path id="Vector_8" fill-rule="evenodd" clip-rule="evenodd" d="M134.86 37.1287C136.234 37.1658 137.641 37.5375 139.082 38.2454C140.524 38.9524 141.397 39.3072 141.707 39.3072C142.153 39.3072 142.564 39.0741 142.943 38.6061C142.668 39.6654 142.17 41.6539 141.45 44.5715C140.248 43.3534 139.58 42.6886 139.442 42.5771C138.447 41.838 137.21 41.4334 135.735 41.3582C134.603 41.3219 133.626 41.6902 132.802 42.4639C131.807 43.3864 131.309 44.7117 131.309 46.4434C131.309 48.5071 132.115 50.1653 133.729 51.4172C135.416 52.4897 137.114 53.54 138.824 54.568C142.943 57.2213 145.003 60.6111 145.003 64.7376C145.003 68.6081 144.023 71.6474 142.068 73.8564C139.974 76.2157 136.971 77.3941 133.058 77.3941C130.828 77.3941 128.941 76.7158 127.396 75.3583C125.681 73.8555 124.718 71.8375 124.514 69.305C124.547 67.6536 124.873 66.3535 125.492 65.3982C125.972 64.6278 126.487 64.2434 127.037 64.2434C127.381 64.2434 127.552 64.4284 127.552 64.7976C127.552 65.0569 127.414 65.3703 127.139 65.7394C127.037 66.1736 126.985 66.6196 126.984 67.0673C126.984 68.5836 127.465 69.9233 128.427 71.0865C129.386 72.2497 130.399 72.868 131.464 72.9424C133.557 73.0911 135.195 72.6028 136.38 71.4759C137.564 70.3508 138.157 68.7171 138.157 66.5774C138.157 64.2164 137.11 62.075 135.016 60.1558C134.983 60.1178 133.214 58.9563 129.713 56.668C127.209 55.0444 125.646 52.7941 125.03 49.9152C124.616 47.8862 124.702 45.929 125.286 44.0478C126.76 39.2886 129.952 36.9817 134.86 37.1287Z" fill="#333333"/>
</g>
</svg>
