<svg width="232" height="40" viewBox="0 0 232 40" fill="none" xmlns="http://www.w3.org/2000/svg">
<g id="nokia" clip-path="url(#clip0_1720_56587)">
<g id="Clip path group">
<mask id="mask0_1720_56587" style="mask-type:luminance" maskUnits="userSpaceOnUse" x="0" y="0" width="232" height="40">
<g id="clip0_2037_6384">
<path id="Vector" d="M232 0H0V39.0688H232V0Z" fill="white"/>
</g>
</mask>
<g mask="url(#mask0_1720_56587)">
<g id="Group">
<path id="Vector_2" d="M11.264 38.5867H0.103027V0.632435H19.4056L41.5498 28.9676V0.632435H52.7107V38.5867H33.7991L11.264 9.76794V38.5867ZM106.111 26.8511C106.111 32.1268 105.179 33.9449 103.634 35.6904C101.265 38.2883 97.8217 39.0688 91.1826 39.0688H72.1266C65.4875 39.0688 62.0395 38.2875 59.6734 35.6904C58.1308 33.9464 57.1962 32.1268 57.1962 26.8511V12.2199C57.1962 6.94494 58.1308 5.12761 59.6734 3.38064C62.0395 0.780547 65.4882 0 72.1266 0H91.1833C97.8217 0 101.266 0.781287 103.634 3.38064C105.178 5.12687 106.111 6.9442 106.111 12.2199V26.8511ZM90.7138 29.4512C93.2628 29.4512 94.1619 29.3023 94.7721 28.7462C95.3453 28.2263 95.5978 27.5576 95.5978 25.3278V13.7418C95.5978 11.5127 95.3453 10.8477 94.7721 10.3256C94.1619 9.76794 93.2628 9.62057 90.7138 9.62057H72.5939C70.0449 9.62057 69.1466 9.76794 68.5379 10.3256C67.9632 10.8477 67.7121 11.5134 67.7121 13.7418V25.3278C67.7121 27.5568 67.9624 28.2263 68.5379 28.7462C69.1466 29.3023 70.0449 29.4512 72.5939 29.4512H90.7138ZM122.331 0.632435V38.5867H110.67V0.632435H122.331ZM142.034 0.632435H157.429L136.651 18.3858L160.086 38.5867H143.612L122.331 18.7924L142.034 0.632435ZM162.238 0.632435H173.903V38.5867H162.238V0.632435ZM218.369 38.5867L214.918 31.975H192.35L188.941 38.5867H176.056L196.729 0.631695H211.225L231.897 38.5867H218.369ZM196.402 23.7311H210.904L203.652 9.99011L196.402 23.7311Z" fill="#154399"/>
</g>
</g>
</g>
</g>
<defs>
<clipPath id="clip0_1720_56587">
<rect width="232" height="40" fill="white"/>
</clipPath>
</defs>
</svg>
