<svg width="110" height="110" viewBox="0 0 110 110" fill="none" xmlns="http://www.w3.org/2000/svg">
<g id="nba">
<path id="Vector" fill-rule="evenodd" clip-rule="evenodd" d="M71.2381 108.197C71.8162 107.106 72.8428 103.574 70.9174 99.8508C71.4955 97.7964 69.9541 97.3461 69.3127 92.7887C69.9547 91.4403 70.4038 89.835 70.3399 88.0374C70.2115 86.4326 69.0559 85.6622 68.4139 84.4427C67.3867 80.3333 66.8092 75.9683 65.2678 72.1162C64.7548 70.2536 63.4708 68.6488 62.5714 66.9157C61.6726 62.2933 61.2235 57.3501 59.8111 52.9845C60.0773 52.782 60.3148 52.5444 60.517 52.278C59.5537 48.3621 58.1413 42.648 56.0869 40.9143C56.5999 38.9883 57.3709 36.7415 57.6277 35.0078C58.5259 33.7883 59.5531 32.4398 61.5436 31.541C62.5708 34.3658 63.0205 37.8971 63.598 40.7214C64.882 43.5462 66.6796 46.0497 67.1932 48.6183C63.9193 49.9023 61.672 52.92 61.672 56.4502C61.672 61.0087 65.3317 64.6678 69.8252 64.6678C73.1641 64.6678 76.0528 62.5489 77.3368 59.6602V100.62C77.3374 104.28 74.7694 107.362 71.2381 108.197Z" fill="#D01E52"/>
<path id="Vector_2" fill-rule="evenodd" clip-rule="evenodd" d="M67.3956 108.318C66.1116 105.236 66.882 102.668 67.1388 99.1372C66.8181 97.5325 66.5607 95.9272 66.3039 94.3869C64.5069 91.626 63.8649 89.1225 63.4152 86.1693C60.0128 83.1522 56.0319 80.5197 53.336 77.2457C48.5207 72.6872 44.99 68.0003 42.5504 62.7359C41.716 62.6726 40.8817 62.6075 39.9823 62.6075C38.4415 58.4348 34.9108 53.3627 35.2315 50.0887C35.3599 47.1994 36.2587 44.5675 37.3498 41.6143C36.3866 41.4214 35.4883 41.7427 34.4611 41.1646C32.8564 40.1374 33.1132 38.3398 33.0487 36.7345C33.7546 33.5245 35.4883 30.8281 36.6439 27.9393C37.7995 25.4352 38.8912 22.9317 39.9823 20.4921C41.5231 18.7584 42.4864 17.5389 44.4119 16.704C46.0811 16.5111 47.7509 16.7679 49.5479 16.3833C50.3183 16.1265 51.2816 15.9336 51.6029 15.42C52.3733 14.3283 52.1804 13.1727 52.5017 11.8248C51.4745 11.2472 51.6029 8.29403 52.7585 7.26683C52.7585 5.21242 53.5928 2.45152 55.3265 1.7456L40.432 1.6172C39.4114 1.6154 38.4004 1.81511 37.4571 2.20488C36.5138 2.59465 35.6567 3.16682 34.935 3.88856C34.2133 4.6103 33.6412 5.46742 33.2515 6.41075C32.8618 7.35408 32.6622 8.36507 32.6641 9.38572V100.614C32.6622 101.634 32.8618 102.645 33.2515 103.588C33.6412 104.532 34.2133 105.389 34.935 106.111C35.6567 106.832 36.5138 107.405 37.4571 107.794C38.4004 108.184 39.4114 108.384 40.432 108.382L67.3956 108.318ZM37.6061 89.3154H41.009L43.5125 97.3396V89.3154H46.5941V102.733H43.1273L40.5593 94.7082V102.733H37.6061V89.3154ZM47.1077 89.3154H51.0881C56.2881 89.3154 54.9402 95.6059 53.0142 95.7343C55.9029 95.4141 56.2881 102.733 51.6017 102.733H47.1077V89.3154ZM50.1893 91.4976V94.5148H50.9603C52.2443 94.5148 52.2443 91.4976 50.9603 91.4976H50.1893ZM50.1893 96.8265V100.55H50.9603C52.4366 100.55 52.2443 96.8265 50.9603 96.8265H50.1893ZM57.5082 89.3154H61.617L63.9921 102.733H60.8466L60.5892 100.358H58.407L58.0212 102.733H54.9402L57.5082 89.3154ZM58.7283 97.9821H60.333L59.4981 91.3047L58.7283 97.9821Z" fill="#0066AF"/>
<path id="Vector_3" fill-rule="evenodd" clip-rule="evenodd" d="M60.6269 1.95216C62.8097 4.00657 64.1582 6.95979 62.1038 10.555C63.3878 11.3893 61.1405 12.8662 60.6269 14.0218C59.9855 15.8194 57.8027 16.8467 58.0595 17.4887C60.8837 19.2223 63.131 20.9555 65.9558 23.2022C67.4327 25.0643 68.0102 32.511 68.8445 38.1606C70.0646 41.6919 71.7978 44.709 72.4398 48.6895C74.687 49.5238 76.4202 51.2575 77.319 53.3119V9.39883C77.3209 8.3782 77.1212 7.36724 76.7315 6.42394C76.3418 5.48064 75.7697 4.62356 75.048 3.90186C74.3263 3.18017 73.4692 2.60806 72.5259 2.21834C71.5826 1.82863 70.5717 1.62899 69.551 1.63087L60.6269 1.95216Z" fill="#D01E52"/>
</g>
</svg>
