<svg width="229" height="29" viewBox="0 0 229 29" fill="none" xmlns="http://www.w3.org/2000/svg">
<g id="spacex" clip-path="url(#clip0_1720_56599)">
<g id="Clip path group">
<mask id="mask0_1720_56599" style="mask-type:luminance" maskUnits="userSpaceOnUse" x="0" y="0" width="232" height="29">
<g id="clip0_2037_6377">
<path id="Vector" d="M232 0H0V28.5824H232V0Z" fill="white"/>
</g>
</mask>
<g mask="url(#mask0_1720_56599)">
<g id="Group">
<path id="Vector_2" d="M54.1537 10.5524H34.5863L33.8873 11.1116V28.5125H39.2684V21.9434L39.7575 21.4543H54.1535C57.7874 21.4543 59.4647 20.4761 59.4647 17.9603V13.9769C59.4649 11.5308 57.7876 10.5524 54.1537 10.5524ZM54.1537 16.9817C54.1537 18.1696 53.3849 18.3792 51.6379 18.3792H39.8276L39.2684 17.8902V14.1864L39.7575 13.6972H51.6377C53.315 13.6972 54.1534 13.9068 54.1534 15.0948L54.1537 16.9817ZM69.3883 13.8369L74.0704 20.6854L73.7909 21.3144H63.4482L60.7926 24.599H76.1669L77.2851 25.2279L79.6611 28.5124H85.8808L72.2535 10.3428L69.3883 13.8369ZM131.095 25.0182V20.1265L131.654 19.6372H142.067V16.5623H125.574V28.5124H149.894V25.4376H131.724L131.095 25.0182ZM125.574 10.5524H150.103V13.9068H125.574V10.5524ZM98.2502 13.767H118.027C117.747 11.2513 116.14 10.5524 112.226 10.5524H98.0405C93.568 10.5524 92.1704 11.3911 92.1704 14.8153V24.3194C92.1704 27.6739 93.568 28.5824 98.0405 28.5824H112.226C116.21 28.5824 117.747 27.8136 117.887 25.2279H98.2502L97.6911 24.6688V14.1864L98.2502 13.767ZM20.6096 17.5408H6.28349L5.86416 17.0517V13.9768L6.28349 13.6274H25.6412L25.9207 12.9984C25.2917 11.3211 23.5447 10.4827 20.3999 10.4827H6.91239C2.43989 10.4827 1.04221 11.3212 1.04221 14.7454V16.7721C1.04221 20.1266 2.43989 21.0351 6.91239 21.0351H21.2386L21.6578 21.4542V24.6689L21.3084 25.1581H0.622878C0.622878 25.1581 0.133789 25.4376 0.133789 25.5075C0.483164 27.8836 2.09052 28.5124 5.93402 28.5124H20.6097C25.0822 28.5124 26.5498 27.6739 26.5498 24.2496V21.8036C26.5497 18.4493 25.0822 17.5408 20.6096 17.5408ZM165.547 10.4826H157.441L157.022 11.3211L165.967 17.8903C167.644 16.9118 169.531 15.9335 171.487 14.9551L165.547 10.4826ZM172.815 22.7821L180.712 28.5124H188.819L189.168 27.7437L177.428 19.148C175.89 20.336 174.283 21.5241 172.815 22.7821Z" fill="#004F84"/>
<path id="Vector_3" d="M164.36 28.5124H157.023L156.394 27.534C161.355 22.7121 183.578 2.16639 231.868 0C231.868 0 191.405 1.39759 164.36 28.5124Z" fill="#A2A4A7"/>
</g>
</g>
</g>
</g>
<defs>
<clipPath id="clip0_1720_56599">
<rect width="229" height="29" fill="white"/>
</clipPath>
</defs>
</svg>
