<svg width="134" height="110" viewBox="0 0 134 110" fill="none" xmlns="http://www.w3.org/2000/svg">
<g id="Clip path group">
<mask id="mask0_1720_56580" style="mask-type:luminance" maskUnits="userSpaceOnUse" x="0" y="0" width="134" height="110">
<g id="clip0_2037_6392">
<path id="Vector" d="M133.656 0H0V110H133.656V0Z" fill="white"/>
</g>
</mask>
<g mask="url(#mask0_1720_56580)">
<g id="Group">
<path id="Vector_2" d="M117.2 54.9999C117.2 85.1669 92.2573 109.995 61.9483 109.995C31.6404 109.995 6.69727 85.1655 6.69727 54.9999C6.69727 24.8311 31.057 0.00488281 61.9483 0.00488281C91.6711 0.00488281 117.2 24.8325 117.2 54.9999Z" fill="#033A92"/>
<path id="Vector_3" d="M74.4118 83.9448C98.0167 93.6202 93.9211 69.1708 81.3383 50.4496C74.2065 39.8437 64.9059 31.0072 59.0397 26.743C39.5889 12.5983 27.5814 21.1772 41.3164 49.0724C45.7573 58.0915 51.4609 64.1788 55.9159 69.9164C59.318 74.2968 65.9447 76.4901 63.6104 78.5676C60.9795 80.9116 54.61 70.5737 54.61 70.5737C49.9058 64.9211 45.4218 58.8894 40.8005 50.6112C30.2428 31.7051 31.7651 12.4083 50.8767 20.814C67.0954 27.9512 82.587 47.9688 88.8163 62.1844C91.6927 68.7492 99.5362 94.7201 74.5547 84.2197" fill="#033A92"/>
<path id="Vector_4" d="M1.00781 71.3022C11.3922 64.4115 21.2378 59.9624 37.9926 54.4479C61.5366 46.6982 79.2561 41.4891 100.999 30.6003C110.731 25.7273 127.618 14.7988 133.656 5.29883C131.848 8.97575 126.247 16.1326 123.713 19.2974C94.2136 56.1006 31.3767 54.0138 1.42248 71.6822" fill="#FC3B1B"/>
<path id="Vector_5" d="M16.0727 44.4036C25.5767 44.4778 24.6443 44.3844 24.7553 44.4955C24.9212 44.4955 32.3439 57.2317 32.3439 57.3423C32.3439 57.396 32.2886 52.8158 32.2886 47.087C32.2886 46.4255 30.4618 44.496 30.5161 44.496C33.229 44.496 36.7745 44.5511 36.7745 44.5511C35.4462 46.095 35.1805 45.9675 35.1692 46.9222C35.1318 49.9894 35.0971 55.6598 35.1692 62.0277C35.1796 62.9824 35.8894 63.3512 37.0528 65.0052H28.3556C25.5308 60.319 20.3543 51.5277 20.38 51.5534C20.4198 51.5935 20.2685 57.0678 20.4344 61.4772C20.4901 62.9343 21.155 63.4067 22.3742 64.7307C22.3742 64.7307 23.7765 64.6934 15.5605 64.7853C18.0532 63.4618 17.722 61.8082 17.721 61.7531C17.6315 55.6598 17.7023 50.4502 17.7023 47.087C17.7023 46.5357 17.6648 46.5903 15.9485 44.4955L16.0727 44.4036ZM45.7889 53.8139C46.5868 51.0534 47.2685 48.5866 47.5923 46.9773C47.6471 46.7014 46.9832 45.7094 45.9308 44.7168L45.8563 44.5628C50.9312 44.5791 56.2328 44.6076 56.2328 44.6076C57.6178 47.9698 60.7744 57.3974 63.1565 63.1873C63.7862 64.7162 64.8737 65.0062 64.8737 65.0062C60.5533 64.9515 52.5355 64.9889 52.5781 64.9515C54.7377 63.0206 54.4607 63.0206 53.519 60.2111H46.762C45.377 63.4081 47.1936 64.9086 47.426 64.8969C45.8882 64.9763 40.6691 64.8969 40.6691 64.8969C43.4939 62.9109 43.3271 62.305 43.3271 62.305C44.103 59.5543 45.0017 56.5412 45.7889 53.8139H48.5617L47.3707 57.6178H52.7449L49.7532 50.009L48.5622 53.8129L45.7898 53.8125L45.7889 53.8139ZM92.2078 54.0893C93.0044 51.3298 93.6866 48.862 94.0103 47.2528C94.0647 46.9773 93.3998 45.9853 92.3479 44.9918L92.2734 44.8387C97.3497 44.855 102.652 44.883 102.652 44.883C104.035 48.2462 107.192 57.6729 109.574 63.4628C110.203 64.9936 111.289 65.2816 111.289 65.2816C106.972 65.227 98.9535 65.2643 98.9952 65.227C101.155 63.2975 100.879 63.2975 99.9375 60.4866H93.1791C91.7941 63.684 93.6097 65.184 93.8421 65.1733C92.3058 65.2517 87.0852 65.1733 87.0852 65.1733C89.9101 63.1882 89.7447 62.5813 89.7447 62.5813C90.5206 59.8297 91.4193 56.8176 92.2078 54.0893H94.9798C94.3828 55.9927 93.7897 57.8946 93.7897 57.8946H99.1611L96.1694 50.285C96.1694 50.285 95.5758 52.1874 94.9798 54.0893H92.2078ZM83.4699 49.5702C83.3598 45.6533 83.4699 44.3863 83.4699 44.3863C81.7523 45.7654 82.6196 45.5894 78.3196 44.8826C65.9295 42.8457 64.9852 54.3708 71.7281 56.9558C77.3882 59.1266 79.3931 59.5524 78.5403 61.5865C78.2634 62.2503 73.1127 64.6752 67.7956 59.7676L67.9038 66.6047C68.5692 65.9226 70.3979 64.6752 70.3979 64.6752C70.4519 64.6752 76.161 67.1807 81.3085 64.565C89.2302 60.5412 85.2766 54.0272 76.8226 51.4437C69.7874 49.2934 76.4347 44.2757 83.4127 49.6244L83.4699 49.5702ZM62.7269 4.999C62.7265 5.11784 62.679 5.23172 62.5948 5.31584C62.5105 5.39996 62.3963 5.4475 62.277 5.44812C62.1578 5.44738 62.0437 5.3998 61.9595 5.3157C61.8752 5.23161 61.8277 5.1178 61.8272 4.999C61.8272 4.75531 62.0311 4.55176 62.277 4.55176C62.3961 4.55213 62.5101 4.59934 62.5944 4.68311C62.6786 4.76688 62.7262 4.88042 62.7269 4.999ZM65.8474 11.788C65.8474 12.0905 65.5953 12.3403 65.2936 12.3403C65.1467 12.3397 65.006 12.2813 64.9021 12.1779C64.7982 12.0744 64.7395 11.9343 64.7388 11.788C64.7388 11.4864 64.989 11.2376 65.2936 11.2376C65.5958 11.2376 65.8474 11.4859 65.8474 11.788ZM73.9429 22.8832C73.9429 23.1847 73.6946 23.4345 73.3886 23.4345C73.2421 23.4335 73.1019 23.3751 72.9983 23.272C72.8946 23.1688 72.8359 23.0291 72.8348 22.8832C72.8348 22.5806 73.0667 22.3304 73.3718 22.3304C73.6773 22.3313 73.9429 22.5806 73.9429 22.8832ZM60.9276 15.6129C60.9271 15.7316 60.8796 15.8452 60.7953 15.9291C60.711 16.013 60.5969 16.0602 60.4778 16.0606C60.3586 16.0602 60.2444 16.013 60.16 15.9292C60.0756 15.8453 60.0278 15.7316 60.0271 15.6129C60.0271 15.3678 60.2309 15.1647 60.4778 15.1647C60.597 15.1651 60.7112 15.2124 60.7955 15.2964C60.8797 15.3804 60.9273 15.4941 60.9276 15.6129ZM65.7771 18.1633C65.7762 18.2817 65.7286 18.3951 65.6445 18.4788C65.5604 18.5625 65.4466 18.6098 65.3278 18.6105C65.2088 18.6099 65.0948 18.5627 65.0105 18.479C64.9263 18.3953 64.8785 18.2819 64.8775 18.1633C64.8775 17.9182 65.0813 17.7156 65.3278 17.7156C65.5737 17.7156 65.7771 17.9182 65.7771 18.1633ZM59.4751 11.0294C59.4751 11.3319 59.2249 11.5816 58.9213 11.5816C58.6177 11.5816 58.3675 11.3333 58.3675 11.0294C58.3675 10.7278 58.6177 10.4775 58.9213 10.4775C59.2249 10.4775 59.4751 10.7268 59.4751 11.0294ZM52.1377 15.4752C52.1377 15.7212 51.9348 15.9234 51.6874 15.9234C51.5683 15.9227 51.4543 15.8753 51.37 15.7914C51.2858 15.7075 51.2382 15.5938 51.2376 15.4752C51.2376 15.2301 51.441 15.027 51.6874 15.027C51.8066 15.0274 51.9209 15.0747 52.0052 15.1586C52.0896 15.2426 52.1372 15.3564 52.1377 15.4752ZM53.4496 16.3701C53.4491 16.4891 53.4015 16.603 53.3171 16.6872C53.2326 16.7713 53.1183 16.8187 52.9989 16.8192C52.8795 16.8186 52.7652 16.7711 52.6808 16.687C52.5964 16.6029 52.5487 16.489 52.5481 16.3701C52.5534 16.2546 52.6032 16.1455 52.6872 16.0655C52.7711 15.9856 52.8828 15.941 52.9989 15.941C53.115 15.941 53.2266 15.9856 53.3106 16.0655C53.3945 16.1455 53.4443 16.2546 53.4496 16.3701ZM54.7662 17.2665C54.7659 17.3853 54.7184 17.4992 54.6341 17.5833C54.5499 17.6674 54.4357 17.715 54.3164 17.7156C54.1971 17.715 54.0829 17.6674 53.9986 17.5833C53.9142 17.4992 53.8666 17.3854 53.8662 17.2665C53.8662 17.0223 54.07 16.8197 54.3164 16.8197C54.5634 16.8197 54.7662 17.0219 54.7662 17.2665ZM52.7609 18.9901C52.7596 19.1087 52.7117 19.2222 52.6274 19.306C52.5431 19.3898 52.4292 19.4373 52.3101 19.4383C52.1909 19.4377 52.0768 19.3903 51.9924 19.3064C51.908 19.2225 51.8602 19.1089 51.8594 18.9901C51.8594 18.745 52.0627 18.5424 52.3101 18.5424C52.5561 18.5424 52.7609 18.745 52.7609 18.9901ZM42.3048 26.2949C42.304 26.4136 42.2562 26.5272 42.1718 26.611C42.0874 26.6948 41.9732 26.7419 41.854 26.7421C41.6071 26.7421 41.4037 26.5405 41.4037 26.2949C41.4037 26.0493 41.6076 25.8463 41.854 25.8463C42.1005 25.8463 42.3048 26.0489 42.3048 26.2949ZM44.2427 28.639C44.2417 28.7576 44.1939 28.871 44.1096 28.9548C44.0254 29.0386 43.9114 29.0859 43.7924 29.0867C43.6733 29.0859 43.5593 29.0386 43.475 28.9548C43.3906 28.8711 43.3428 28.7576 43.3416 28.639C43.3416 28.3925 43.5455 28.1908 43.7924 28.1908C44.0393 28.1908 44.2427 28.3925 44.2427 28.639ZM42.7021 66.4749C42.7013 66.5935 42.6536 66.7071 42.5693 66.791C42.485 66.8748 42.3709 66.9221 42.2518 66.9226C42.0049 66.9226 41.802 66.72 41.802 66.4749C41.802 66.2298 42.0049 66.0262 42.2518 66.0262C42.4992 66.0262 42.7021 66.2298 42.7021 66.4749ZM42.979 76.9132C42.979 77.2157 42.7288 77.465 42.4252 77.465C42.1216 77.465 41.8713 77.2171 41.8713 76.9132C41.8713 76.6116 42.1216 76.3623 42.4252 76.3623C42.5717 76.363 42.712 76.4212 42.8156 76.5244C42.9193 76.6275 42.978 76.7672 42.979 76.9132ZM37.0233 82.2596C37.0224 82.378 36.9748 82.4913 36.8907 82.575C36.8066 82.6587 36.6928 82.7061 36.574 82.7068C36.455 82.7062 36.341 82.6589 36.2567 82.5752C36.1725 82.4915 36.1247 82.3781 36.1237 82.2596C36.1237 82.0126 36.3275 81.8109 36.574 81.8109C36.8199 81.8109 37.0233 82.0121 37.0233 82.2596ZM29.8929 84.4248C29.892 84.571 29.8332 84.711 29.7293 84.8143C29.6255 84.9176 29.4849 84.9759 29.3382 84.9766C29.1914 84.9761 29.0509 84.9178 28.9471 84.8145C28.8434 84.7111 28.7848 84.571 28.7844 84.4248C28.7844 84.1228 29.0346 83.873 29.3382 83.873C29.4849 83.8738 29.6253 83.9322 29.7292 84.0355C29.833 84.1388 29.8918 84.2786 29.8929 84.4248ZM28.4386 79.6027C28.4386 79.9038 28.1884 80.1531 27.8857 80.1531C27.7393 80.1524 27.599 80.0942 27.4954 79.9912C27.3917 79.8882 27.333 79.7486 27.3319 79.6027C27.3325 79.4564 27.391 79.3163 27.4947 79.2127C27.5984 79.1091 27.7389 79.0505 27.8857 79.0495C28.1884 79.0509 28.4386 79.2997 28.4386 79.6027ZM27.6088 82.6699C27.6088 82.916 27.405 83.1176 27.1585 83.1176C26.912 83.1176 26.7078 82.916 26.7078 82.6699C26.7078 82.4258 26.912 82.2217 27.1585 82.2217C27.405 82.2217 27.6088 82.4244 27.6088 82.6699ZM22.2762 80.1214C22.2755 80.2398 22.228 80.3532 22.144 80.437C22.06 80.5208 21.9462 80.5682 21.8274 80.5691C21.7082 80.5686 21.5941 80.5213 21.5097 80.4375C21.4253 80.3537 21.3775 80.2401 21.3766 80.1214C21.3766 79.8772 21.58 79.6737 21.8274 79.6737C22.0729 79.6737 22.2762 79.8758 22.2762 80.1214ZM40.901 88.7343C40.901 88.9803 40.715 89.183 40.469 89.183C40.2221 89.183 40.0009 88.9803 40.0009 88.7343C40.0009 88.4892 40.2047 88.2861 40.4507 88.2861C40.6986 88.2861 40.901 88.4887 40.901 88.7343ZM46.5104 84.6354C46.5104 84.9379 46.278 85.1881 45.9735 85.1881C45.6699 85.1881 45.4028 84.9393 45.4028 84.6354C45.4028 84.3338 45.653 84.0845 45.9566 84.0845C46.1031 84.0852 46.2434 84.1435 46.3471 84.2466C46.4508 84.3497 46.5094 84.4893 46.5104 84.6354ZM47.1523 89.9061C47.1523 90.1521 46.9307 90.3557 46.6852 90.3557C46.5658 90.3549 46.4515 90.3073 46.3671 90.2232C46.2827 90.139 46.2351 90.0251 46.2345 89.9061C46.2345 89.6619 46.4378 89.4593 46.6852 89.4593C46.9307 89.4589 47.1523 89.6605 47.1523 89.9061ZM70.2049 84.8735C70.204 84.9919 70.1565 85.1053 70.0725 85.1893C69.9886 85.2732 69.8749 85.3209 69.756 85.3221C69.6367 85.3214 69.5224 85.2739 69.4379 85.19C69.3534 85.106 69.3054 84.9923 69.3043 84.8735C69.3043 84.6274 69.5077 84.4257 69.756 84.4257C70.0015 84.4257 70.2049 84.6274 70.2049 84.8735ZM59.4751 88.6638C59.4746 88.7825 59.4271 88.8961 59.3428 88.98C59.2586 89.0639 59.1444 89.1111 59.0253 89.1115C58.9063 89.1109 58.7923 89.0636 58.7081 88.9797C58.6239 88.8959 58.5763 88.7824 58.5755 88.6638C58.5755 88.4196 58.7793 88.2161 59.0253 88.2161C59.2727 88.2161 59.4751 88.4187 59.4751 88.6638ZM88.3475 94.112C88.3465 94.2306 88.2987 94.344 88.2145 94.4278C88.1302 94.5116 88.0163 94.5589 87.8972 94.5597C87.778 94.5592 87.6638 94.5119 87.5794 94.4281C87.4949 94.3443 87.447 94.2307 87.446 94.112C87.446 93.8673 87.6503 93.6643 87.8972 93.6643C88.1432 93.6643 88.3475 93.8664 88.3475 94.112ZM90.6991 72.9174C90.6983 73.0637 90.6395 73.2037 90.5356 73.3072C90.4318 73.4106 90.2912 73.469 90.1444 73.4697C89.9977 73.4688 89.8571 73.4104 89.7534 73.307C89.6497 73.2036 89.591 73.0636 89.5901 72.9174C89.5901 72.6149 89.8398 72.3651 90.1444 72.3651C90.2912 72.3657 90.4319 72.4241 90.5358 72.5275C90.6397 72.631 90.6984 72.7711 90.6991 72.9174ZM86.2713 75.9146C86.2705 76.0335 86.2226 76.1472 86.1382 76.2312C86.0537 76.3152 85.9395 76.3626 85.8201 76.3632C85.5746 76.3632 85.3708 76.1602 85.3708 75.9146C85.3708 75.669 85.5746 75.4673 85.8201 75.4673C86.0675 75.4673 86.2713 75.6686 86.2713 75.9146ZM90.6345 76.7783C90.6345 77.0803 90.3847 77.331 90.0797 77.331C89.7747 77.331 89.5249 77.0817 89.5249 76.7783C89.5249 76.4767 89.7747 76.2264 90.0797 76.2264C90.3847 76.2264 90.6345 76.4767 90.6345 76.7783ZM86.2713 82.119C86.2705 82.2378 86.2226 82.3515 86.1381 82.4353C86.0536 82.5191 85.9394 82.5664 85.8201 82.5667C85.7012 82.5659 85.5874 82.5184 85.5034 82.4347C85.4193 82.3509 85.3717 82.2375 85.3708 82.119C85.3708 81.873 85.5746 81.6704 85.8201 81.6704C86.0675 81.6704 86.2713 81.8725 86.2713 82.119ZM97.554 69.9202C97.554 70.1649 97.3492 70.3684 97.1037 70.3684C96.9847 70.3674 96.8709 70.3199 96.7869 70.236C96.7029 70.1522 96.6553 70.0388 96.6544 69.9202C96.6544 69.6747 96.8577 69.473 97.1037 69.473C97.3497 69.473 97.554 69.6747 97.554 69.9202ZM98.6457 72.642C98.6457 72.944 98.4147 73.1943 98.1097 73.1943C97.8056 73.1943 97.538 72.9454 97.538 72.642C97.538 72.3394 97.7878 72.0906 98.0914 72.0906C98.3959 72.0915 98.6457 72.3394 98.6457 72.642ZM106.419 75.8819C106.419 76.184 106.171 76.4337 105.865 76.4337C105.718 76.4332 105.577 76.375 105.473 76.2716C105.369 76.1683 105.311 76.0282 105.31 75.8819C105.311 75.7356 105.369 75.5956 105.473 75.4922C105.577 75.3888 105.718 75.3304 105.865 75.3296C106.011 75.3301 106.152 75.3885 106.256 75.4919C106.36 75.5954 106.418 75.7356 106.419 75.8819ZM98.5234 81.6386C98.5223 81.7574 98.4743 81.8709 98.3899 81.9547C98.3055 82.0384 98.1913 82.0857 98.0722 82.0864C97.9531 82.0857 97.8391 82.0384 97.7548 81.9546C97.6705 81.8708 97.6228 81.7573 97.6219 81.6386C97.6219 81.3926 97.8262 81.19 98.0722 81.19C98.3182 81.19 98.5234 81.3912 98.5234 81.6386ZM103.509 76.951C103.509 77.0696 103.461 77.1831 103.377 77.2669C103.293 77.3507 103.179 77.3981 103.06 77.3987C102.941 77.398 102.827 77.3506 102.743 77.2668C102.659 77.183 102.611 77.0696 102.61 76.951C102.61 76.7064 102.815 76.5028 103.06 76.5028C103.306 76.5028 103.509 76.705 103.509 76.951ZM102.591 84.1872C102.59 84.3057 102.543 84.4193 102.459 84.5031C102.374 84.5869 102.26 84.6343 102.142 84.6349C102.022 84.6346 101.908 84.5875 101.823 84.5036C101.739 84.4198 101.691 84.306 101.69 84.1872C101.69 83.943 101.894 83.739 102.142 83.739C102.388 83.739 102.591 83.9416 102.591 84.1872ZM104.704 72.1611C104.704 72.5397 104.391 72.8502 104.011 72.8502C103.631 72.8502 103.319 72.5397 103.319 72.1611C103.319 71.783 103.631 71.4725 104.011 71.4725C104.391 71.4725 104.704 71.783 104.704 72.1611Z" fill="white"/>
<path id="Vector_6" d="M104.009 70.0601L103.804 71.9551L101.917 72.1624L103.82 72.3678L104.028 74.3328L104.236 72.3678L106.105 72.126L104.219 71.9537L104.009 70.0601ZM99.8541 84.1492C99.8541 84.5283 99.5416 84.8397 99.1616 84.8397C98.9781 84.8389 98.8022 84.766 98.6724 84.6366C98.5426 84.5073 98.4694 84.3321 98.4688 84.1492C98.4688 83.7711 98.7816 83.4606 99.1616 83.4606C99.3448 83.4613 99.5203 83.5341 99.65 83.663C99.7797 83.792 99.853 83.9667 99.8541 84.1492Z" fill="#033A92"/>
<path id="Vector_7" d="M99.166 82.0488L98.9579 83.9447L97.072 84.1506L98.9753 84.3578L99.1838 86.3209L99.3918 84.3578L101.259 84.116L99.3726 83.9433L99.166 82.0488ZM48.2063 27.2247C48.2063 27.6028 47.8938 27.9138 47.5143 27.9138C47.3309 27.9133 47.1551 27.8406 47.0253 27.7115C46.8955 27.5824 46.8222 27.4074 46.8213 27.2247C46.8213 26.8456 47.1333 26.5352 47.5143 26.5352C47.8938 26.5361 48.2063 26.8465 48.2063 27.2247Z" fill="#033A92"/>
<path id="Vector_8" d="M47.5133 25.1225L47.3053 27.0174L45.418 27.2247L47.3221 27.4296L47.5302 29.3955L47.7373 27.4296L49.6068 27.1897L47.7195 27.0165L47.5133 25.1225ZM73.9623 10.5474C73.9623 10.9255 73.6494 11.2369 73.2694 11.2369C72.8894 11.2369 72.5778 10.9255 72.5778 10.5474C72.5778 10.1683 72.8889 9.85693 73.2694 9.85693C73.6498 9.85693 73.9623 10.1692 73.9623 10.5474Z" fill="#033A92"/>
<path id="Vector_9" d="M73.2693 8.44434L73.0632 10.3407L71.1767 10.548L73.0804 10.7538L73.2866 12.7184L73.4946 10.7538L75.3632 10.512L73.4764 10.3397L73.2693 8.44434ZM42.6497 95.1819C42.6497 95.5609 42.3372 95.8714 41.9576 95.8714C41.7742 95.8708 41.5985 95.798 41.4687 95.6688C41.3389 95.5397 41.2655 95.3646 41.2646 95.1819C41.2646 94.8042 41.5772 94.4919 41.9576 94.4919C42.3372 94.4923 42.6497 94.8047 42.6497 95.1819Z" fill="#033A92"/>
<path id="Vector_10" d="M41.9738 93.0767L41.7667 94.973L39.8799 95.1794L41.7836 95.3852L41.9912 97.3498L42.1983 95.3852L44.0678 95.1443L42.1814 94.9716L41.9738 93.0767Z" fill="#033A92"/>
<path id="Vector_11" d="M133.651 5.29932C125.23 30.1881 91.5002 49.4069 63.1062 67.7532C45.9766 78.8255 28.9697 91.5691 17.2617 102.412C14.1758 105.272 17.8905 101.343 16.7078 102.551C33.047 83.8059 51.8423 72.6407 62.2286 65.6122C79.794 53.722 89.7848 50.7253 120.09 22.9127" fill="#FC3B1B"/>
<path id="Vector_12" d="M8.0309 66.9604C5.00689 68.4334 2.29822 69.8896 0 71.3111L1.39814 71.818C3.40821 70.5851 5.82123 69.2989 8.3631 68.1658L8.0309 66.9604ZM23.9952 94.8123C21.1182 97.3119 18.2888 99.8654 15.5084 102.472L15.3819 104.372C18.0058 101.678 21.2289 98.7708 24.9487 95.6849" fill="#FC3B1B"/>
<path id="Vector_13" d="M74.4114 83.9443C98.0163 93.6198 93.9208 69.1704 81.3379 50.4492C74.2057 39.8433 65.4111 31.4297 59.0388 26.7425C51.5983 21.2687 50.8721 20.8149 50.8721 20.8149C67.4877 28.6725 82.5824 47.9693 88.8108 62.1858C91.6881 68.7502 99.5312 94.7211 74.5492 84.2207" fill="#033A92"/>
</g>
</g>
</g>
</svg>
