<svg width="232" height="31" viewBox="0 0 232 31" fill="none" xmlns="http://www.w3.org/2000/svg">
<g id="tesla" clip-path="url(#clip0_1720_56606)">
<g id="Clip path group">
<mask id="mask0_1720_56606" style="mask-type:luminance" maskUnits="userSpaceOnUse" x="0" y="0" width="232" height="31">
<g id="clip0_2037_6371">
<path id="Vector" d="M232 0H0V30.2222H232V0Z" fill="white"/>
</g>
</mask>
<g mask="url(#mask0_1720_56606)">
<g id="Group">
<path id="Vector_2" d="M198.203 11.9925V30.2045H204.03V18.0632H225.341V30.2045H231.168V11.9925H198.203ZM203.364 6.08822H225.84C229.003 5.5061 231.251 2.67868 231.917 0.0175781H197.287C197.953 2.67868 200.284 5.42295 203.364 6.08822ZM180.472 30.2045C183.386 28.9571 184.967 26.7949 185.633 24.3001H159.412V0.100738H153.501V30.2045H180.472ZM109.798 6.00506H130.609C133.773 5.09031 136.353 2.67868 137.019 0.100738H104.055V17.8969H131.026V24.1338H109.882C106.552 25.0486 103.722 27.2939 102.307 30.2045H136.853V11.9925H109.882L109.798 6.00506ZM58.5204 6.08822H80.9962C84.1594 5.5061 86.4902 2.67868 87.0728 0.0175781H52.3604C53.0263 2.67868 55.3571 5.42295 58.5204 6.08822ZM58.5204 17.98H80.9962C84.1594 17.3979 86.4902 14.5705 87.0728 11.9094H52.3604C53.0263 14.5705 55.3571 17.3148 58.5204 17.98ZM58.5204 30.2045H80.9962C84.1594 29.6224 86.4902 26.7949 87.0728 24.1338H52.3604C53.0263 26.7949 55.3571 29.6224 58.5204 30.2045Z" fill="#E12026"/>
<path id="Vector_3" d="M0 0.100738C0.665949 2.76184 2.99677 5.42295 6.07679 6.08822H15.5666L16.066 6.25454V30.1213H21.9763V6.25454L22.4758 6.08822H31.9656C35.1288 5.25663 37.3764 2.76184 38.0423 0.100738V0.0175781L0 0.100738Z" fill="#E12026"/>
</g>
</g>
</g>
</g>
<defs>
<clipPath id="clip0_1720_56606">
<rect width="232" height="31" fill="white"/>
</clipPath>
</defs>
</svg>
