<svg width="232" height="56" viewBox="0 0 232 56" fill="none" xmlns="http://www.w3.org/2000/svg">
<g id="amd" clip-path="url(#clip0_1720_56593)">
<g id="Clip path group">
<mask id="mask0_1720_56593" style="mask-type:luminance" maskUnits="userSpaceOnUse" x="0" y="0" width="232" height="56">
<g id="clip0_2037_6381">
<path id="Vector" d="M232 0H0V55.3088H232V0Z" fill="white"/>
</g>
</mask>
<g mask="url(#mask0_1720_56593)">
<g id="Group">
<path id="Vector_2" d="M54.5139 51.6332H41.6527L37.7182 42.1432H16.2837L12.6991 51.6332H0.0498047L19.3749 3.70345H33.2196L54.5139 51.6332ZM26.4734 15.1564L19.4459 33.7792H34.2044L26.4734 15.1564ZM101.232 3.70345H111.633V51.6332H99.6848V21.6949L86.7541 36.7327H84.9276L71.9977 21.6949V51.6326H60.0493V3.70345H70.4501L85.8401 21.4832L101.232 3.70345ZM141.907 3.70345C159.406 3.70345 168.399 14.5949 168.399 27.7367C168.399 41.5107 159.686 51.6332 140.571 51.6332H120.753V3.70345H141.907ZM132.7 42.8485H140.5C152.517 42.8485 156.102 34.6946 156.102 27.6657C156.102 19.4425 151.674 12.487 140.359 12.487H132.7V42.8485ZM192.17 15.068L177.105 0H231.95V54.8473L216.885 39.781V15.068H192.17ZM192.152 18.0874L176.642 33.5974V55.3088H198.35L213.86 39.7987H192.152V18.0874Z" fill="#2C2E35"/>
</g>
</g>
</g>
</g>
<defs>
<clipPath id="clip0_1720_56593">
<rect width="232" height="56" fill="white"/>
</clipPath>
</defs>
</svg>
