<svg width="232" height="85" viewBox="0 0 232 85" fill="none" xmlns="http://www.w3.org/2000/svg">
<g id="unity" clip-path="url(#clip0_1720_56581)">
<g id="Clip path group">
<mask id="mask0_1720_56581" style="mask-type:luminance" maskUnits="userSpaceOnUse" x="0" y="0" width="232" height="85">
<g id="clip0_2037_6388">
<path id="Vector" d="M232 0H0V84.448H232V0Z" fill="white"/>
</g>
</mask>
<g mask="url(#mask0_1720_56581)">
<g id="Group">
<path id="Vector_2" d="M129.564 25.5747H121.468V44.3012C121.468 49.1209 119.487 52.95 113.677 52.95C107.923 53.0072 106.266 49.0638 106.266 44.0535V25.5747H98.1505V46.111C98.1505 52.0356 100.246 60.513 111.39 60.5701C117.506 60.6273 120.535 57.6555 121.963 55.0075V59.5224H129.564V25.5747ZM132.784 59.5224H140.88V40.7959C140.88 36.0333 142.862 32.2042 148.615 32.1471C154.311 32.1471 155.968 36.0333 155.968 41.1198V59.5224H164.065V39.0624C164.065 33.0615 161.969 24.6032 150.901 24.527C144.843 24.4698 141.814 27.4226 140.328 30.0897C140.385 28.4894 140.385 27.0607 140.385 25.5747H132.784V59.5224ZM167.17 59.5224H175.266V25.5747H167.17V59.5224ZM167.17 21.0027H175.266V13.7636H167.17V21.0027ZM183.743 59.5224H191.84V31.8232H197.65L195.25 25.5747H191.84V13.7636H183.743V25.5747H178.124V31.8232H183.743V59.5224ZM205.48 71.3907H214.129L231.998 25.5747H223.349L215.196 48.1493L206.909 25.5747H198.26L211.062 58.2269L205.48 71.3907ZM53.7443 42.2438L68.5273 16.7163L75.6712 42.2438L68.5273 67.7712L53.7443 42.2438ZM46.5433 46.3777L61.3263 71.9051L35.5703 65.3136L16.9582 46.3777H46.5433ZM61.3263 12.5634L46.5433 38.0908H16.9582L35.5703 19.1548L61.3263 12.5634ZM82.434 33.5568L73.4042 0.00927734L39.7423 9.00101L34.7512 17.7641L24.6354 17.6879L-0.015625 42.2438L24.6354 66.7996L34.7512 66.7234L39.7423 75.4865L73.4042 84.4783L82.434 50.9307L77.3095 42.2438L82.434 33.5568Z" fill="#333333"/>
</g>
</g>
</g>
</g>
<defs>
<clipPath id="clip0_1720_56581">
<rect width="232" height="85" fill="white"/>
</clipPath>
</defs>
</svg>
