<svg width="146" height="49" viewBox="0 0 146 49" fill="none" xmlns="http://www.w3.org/2000/svg">
<g id="drupal_school_logo" clip-path="url(#clip0_1720_56983)">
<g id="Clip path group">
<mask id="mask0_1720_56983" style="mask-type:luminance" maskUnits="userSpaceOnUse" x="0" y="-1" width="146" height="50">
<g id="clip0_6443_180">
<path id="Vector" d="M145.265 -0.000244141H0.862305V48.134H145.265V-0.000244141Z" fill="white"/>
</g>
</mask>
<g mask="url(#mask0_1720_56983)">
<g id="Group">
<path id="Vector_2" d="M86.0595 17.8672C87.598 19.4552 91.6902 19.7571 91.7196 16.7057C91.7636 12.449 91.7851 8.19013 91.7851 3.92909C91.7851 3.82191 91.8386 3.76831 91.9456 3.76831H96.4441C96.5537 3.76831 96.608 3.82191 96.608 3.92909C96.6305 8.11357 96.6313 12.2992 96.6115 16.4858C96.6046 18.1155 96.2164 19.5089 95.4469 20.666C92.2509 25.476 83.4346 24.9314 81.3642 19.3797C81.0383 18.5092 80.8743 17.0928 80.8721 15.1307C80.8655 11.3947 80.8655 7.66298 80.8721 3.93565C80.8721 3.82409 80.9278 3.76831 81.0395 3.76831H85.5411C85.6504 3.76831 85.7062 3.823 85.7084 3.93236C85.8506 8.49965 85.8714 11.643 85.7708 13.3623C85.6789 14.9568 85.7237 16.3535 85.9053 17.5522C85.9228 17.6747 85.9742 17.7796 86.0595 17.8672Z" fill="white"/>
<path id="Vector_3" d="M104.329 17.404V23.3724C104.329 23.4817 104.274 23.5364 104.165 23.5364H99.7446C99.5747 23.5364 99.4893 23.4511 99.4893 23.2805V3.93516C99.4893 3.82797 99.5427 3.77329 99.6497 3.7711C102.6 3.7547 107.186 3.30847 109.66 4.29608C115.032 6.4452 115.104 14.2641 109.828 16.6068C108.279 17.2925 106.307 17.2433 104.512 17.2203C104.39 17.2203 104.329 17.2815 104.329 17.404ZM104.329 8.65334V12.3282C104.329 12.3856 104.352 12.4407 104.392 12.4813C104.433 12.5219 104.488 12.5448 104.545 12.5448H107.026C107.553 12.5448 108.059 12.3425 108.432 11.9825C108.805 11.6226 109.014 11.1344 109.014 10.6253V10.3562C109.014 9.84721 108.805 9.35896 108.432 8.99899C108.059 8.63902 107.553 8.43682 107.026 8.43682H104.545C104.488 8.43682 104.433 8.45964 104.392 8.50025C104.352 8.54086 104.329 8.59594 104.329 8.65334Z" fill="white"/>
<path id="Vector_4" d="M42.2075 3.912C42.2075 3.89304 42.2113 3.87427 42.2186 3.85676C42.2258 3.83924 42.2364 3.82333 42.2499 3.80992C42.2632 3.79652 42.2791 3.78588 42.2967 3.77862C42.3142 3.77137 42.3329 3.76763 42.3519 3.76763L50.6957 3.75124C52.0199 3.74898 53.3315 3.99722 54.5557 4.48178C55.7798 4.96634 56.8926 5.67773 57.8305 6.57532C58.7682 7.4729 59.5127 8.53912 60.0214 9.71311C60.53 10.8871 60.7929 12.1458 60.7949 13.4174V13.8635C60.7991 16.4314 59.7409 18.8958 57.8531 20.7147C55.9653 22.5336 53.4025 23.5579 50.7286 23.5625L42.3847 23.5789C42.3465 23.5789 42.3097 23.5637 42.2827 23.5366C42.2556 23.5095 42.2404 23.4728 42.2404 23.4345L42.2075 3.912ZM47.162 8.52194L47.1423 18.8312C47.1423 18.8564 47.1523 18.8806 47.1702 18.8984C47.188 18.9162 47.2123 18.9263 47.2375 18.9263L50.4989 18.9296C51.2094 18.9309 51.9133 18.7979 52.5703 18.5381C53.2272 18.2782 53.8244 17.8968 54.3277 17.4154C54.831 16.934 55.2307 16.3621 55.5037 15.7324C55.7768 15.1028 55.918 14.4276 55.9192 13.7454V13.6339C55.9217 12.2565 55.3542 10.9343 54.3414 9.95844C53.3286 8.98256 51.9535 8.43278 50.5185 8.43008L47.2571 8.42679C47.2319 8.42679 47.2077 8.43682 47.1898 8.45466C47.172 8.47251 47.162 8.49671 47.162 8.52194Z" fill="white"/>
<path id="Vector_5" d="M68.4006 17.4663V23.3723C68.4006 23.4158 68.3832 23.4575 68.3525 23.4883C68.3217 23.5191 68.28 23.5363 68.2365 23.5363H63.6429C63.5314 23.5363 63.4756 23.4817 63.4756 23.3723L63.4821 4.18773C63.4821 3.90993 63.6221 3.76994 63.9022 3.76776C66.5183 3.76557 69.2482 3.76557 72.0918 3.76776C78.6179 3.77103 80.8359 12.3741 75.7698 15.9833C75.733 16.0089 75.7071 16.0478 75.6975 16.092C75.6877 16.1363 75.6949 16.1829 75.7174 16.2228L79.6711 23.346C79.7411 23.4729 79.7028 23.5363 79.5562 23.5363H74.3327C74.2212 23.5363 74.1381 23.4882 74.0834 23.392L70.7038 17.404C70.636 17.2815 70.5311 17.2202 70.3889 17.2202H68.6467C68.4826 17.2202 68.4006 17.3023 68.4006 17.4663ZM68.3907 8.5844L68.4038 12.4102C68.4038 12.4476 68.4187 12.4835 68.4451 12.5099C68.4716 12.5364 68.5075 12.5512 68.5449 12.5512L71.826 12.5381C72.3924 12.5363 72.9349 12.3233 73.3343 11.9462C73.7336 11.5689 73.957 11.0584 73.9554 10.5268V10.4284C73.9546 10.1651 73.8986 9.90451 73.7905 9.6616C73.6824 9.41868 73.5243 9.19811 73.3253 9.01256C73.1264 8.82701 72.8904 8.68002 72.6309 8.58014C72.3714 8.48022 72.0934 8.42927 71.8129 8.43019L68.5318 8.44332C68.4943 8.44332 68.4584 8.45818 68.432 8.48464C68.4056 8.51109 68.3907 8.54699 68.3907 8.5844Z" fill="white"/>
<path id="Vector_6" d="M124.963 20.1738H118.369C118.348 20.1738 118.328 20.1801 118.311 20.1918C118.294 20.2035 118.281 20.2201 118.274 20.2394L117.083 23.4713C117.075 23.4906 117.062 23.5072 117.045 23.5189C117.028 23.5307 117.007 23.537 116.988 23.537H111.938C111.921 23.537 111.905 23.5329 111.89 23.5253C111.876 23.5176 111.864 23.5066 111.854 23.493C111.845 23.4794 111.839 23.4638 111.837 23.4474C111.834 23.4311 111.837 23.4146 111.842 23.3991L119.015 3.83394C119.023 3.81463 119.036 3.79802 119.052 3.7863C119.069 3.77457 119.09 3.7683 119.11 3.76831H124.199C124.22 3.7683 124.24 3.77457 124.257 3.7863C124.274 3.79802 124.287 3.81463 124.294 3.83394L131.474 23.3991C131.479 23.4146 131.481 23.4311 131.479 23.4474C131.477 23.4638 131.471 23.4794 131.462 23.493C131.453 23.5066 131.44 23.5176 131.425 23.5253C131.411 23.5329 131.394 23.537 131.378 23.537H126.322C126.301 23.537 126.282 23.5307 126.264 23.5189C126.247 23.5072 126.234 23.4906 126.227 23.4713L125.058 20.2394C125.051 20.2201 125.039 20.2035 125.021 20.1918C125.004 20.1801 124.984 20.1738 124.963 20.1738ZM120.046 15.3473C120.04 15.3627 120.037 15.3793 120.04 15.3956C120.041 15.412 120.047 15.4276 120.057 15.4412C120.066 15.4547 120.078 15.4658 120.093 15.4734C120.108 15.4811 120.124 15.4851 120.141 15.4851L123.139 15.5114C123.155 15.5112 123.171 15.5072 123.186 15.4997C123.199 15.4922 123.212 15.4815 123.221 15.4683C123.23 15.4552 123.236 15.4401 123.239 15.4242C123.241 15.4083 123.24 15.3921 123.235 15.3768L121.771 11.2262C121.764 11.2068 121.751 11.1899 121.735 11.1778C121.717 11.1658 121.698 11.1591 121.677 11.1588C121.656 11.1584 121.636 11.1644 121.619 11.1759C121.602 11.1873 121.588 11.2037 121.581 11.223L120.046 15.3473Z" fill="white"/>
<path id="Vector_7" d="M137.746 18.9434H145.158C145.189 18.9434 145.218 18.9555 145.24 18.9771C145.262 18.9985 145.274 19.0278 145.274 19.0582L145.267 23.4221C145.267 23.4525 145.255 23.4817 145.233 23.5033C145.212 23.5248 145.182 23.537 145.152 23.537H132.825C132.794 23.537 132.765 23.5248 132.743 23.5033C132.723 23.4817 132.71 23.4525 132.71 23.4221V3.88315C132.71 3.85269 132.723 3.82348 132.743 3.80194C132.765 3.78041 132.794 3.76831 132.825 3.76831H137.517C137.547 3.76831 137.576 3.78041 137.598 3.80194C137.62 3.82348 137.632 3.85269 137.632 3.88315V18.8285C137.632 18.8436 137.634 18.8585 137.64 18.8725C137.646 18.8864 137.655 18.8991 137.665 18.9098C137.676 18.9204 137.689 18.9288 137.702 18.9346C137.716 18.9404 137.732 18.9434 137.746 18.9434Z" fill="white"/>
<path id="Vector_8" d="M9.9589 29.1128C7.67911 38.6571 17.0516 45.0394 25.3818 40.2614C31.0916 36.9887 33.4296 29.6776 33.8518 23.5399C33.8527 23.5249 33.8589 23.5107 33.8692 23.4999C33.8796 23.489 33.8934 23.4821 33.9083 23.4804C33.9232 23.4787 33.9382 23.4822 33.9508 23.4904C33.9633 23.4986 33.9725 23.511 33.977 23.5253C36.6789 32.7668 34.3235 41.7463 25.3236 46.3787C17.238 50.5453 6.01074 47.0251 2.24309 38.6745C-0.365732 32.8892 0.921209 26.4049 4.43555 21.1902C7.16666 17.1401 11.6739 12.7319 14.5535 7.88986C15.9898 5.47515 16.7207 2.95173 16.7459 0.319618C16.7498 -0.000661828 16.8692 -0.0521008 17.1041 0.165301C20.6737 3.45933 23.6348 7.23086 25.9874 11.4799C26.0379 11.5731 26.0301 11.6604 25.9641 11.7419C25.7254 12.035 25.5372 12.2272 25.3993 12.3185C19.1655 16.4442 11.8311 21.2659 9.9589 29.1128Z" fill="url(#paint0_linear_1720_56983)"/>
<path id="Vector_9" d="M26.3459 11.4416C29.3246 8.06403 30.8531 4.67198 30.8385 0.0599526C30.8388 0.047117 30.843 0.0346702 30.8507 0.0243751C30.8584 0.0140802 30.8691 0.00645946 30.8813 0.00259382C30.8936 -0.00127182 30.9067 -0.00118627 30.9189 0.00283762C30.9311 0.00686151 30.9417 0.0146199 30.9492 0.0250133C35.5351 6.17729 34.7052 13.7883 29.2401 19.0293C29.231 19.0377 29.22 19.0437 29.208 19.0467C29.196 19.0497 29.1834 19.0496 29.1715 19.0463C29.1595 19.0431 29.1487 19.0369 29.1398 19.0284C29.1309 19.0198 29.1243 19.0091 29.1207 18.9972C28.4122 16.5534 27.4669 14.2057 26.2848 11.954C26.1877 11.7695 26.2081 11.5987 26.3459 11.4416Z" fill="url(#paint1_linear_1720_56983)"/>
<path id="Vector_10" d="M17.3746 33.1975C16.1343 29.7414 19.704 25.9098 22.2866 24.1336C24.5674 22.5672 26.8219 20.9707 29.0503 19.344C29.1241 19.2897 29.1716 19.3061 29.193 19.3935C30.4799 24.3695 30.2295 29.5843 26.82 33.5965C25.7641 34.8388 24.6353 35.6375 23.4338 35.9928C21.122 36.6741 18.2336 35.5967 17.3746 33.1975Z" fill="url(#paint2_linear_1720_56983)"/>
<path id="Vector_11" d="M48.2842 35.3222L48.294 44.4371C48.294 44.4526 48.2909 44.468 48.285 44.4823C48.2791 44.4966 48.2704 44.5096 48.2594 44.5206C48.2485 44.5316 48.2354 44.5403 48.221 44.5462C48.2067 44.5522 48.1913 44.5552 48.1759 44.5552H45.4427C45.4272 44.5552 45.4118 44.5522 45.3975 44.5462C45.3832 44.5403 45.3701 44.5316 45.3592 44.5206C45.3482 44.5096 45.3395 44.4966 45.3336 44.4823C45.3276 44.468 45.3246 44.4526 45.3246 44.4371V35.3222C45.3246 35.3067 45.3215 35.2913 45.3156 35.277C45.3097 35.2627 45.301 35.2497 45.29 35.2387C45.2791 35.2278 45.266 35.219 45.2517 35.2131C45.2374 35.2071 45.222 35.2041 45.2065 35.2041H42.3257C42.3102 35.2041 42.2948 35.201 42.2805 35.1951C42.2662 35.1892 42.2532 35.1805 42.2421 35.1695C42.2312 35.1585 42.2224 35.1455 42.2166 35.1311C42.2106 35.1168 42.2075 35.1015 42.2075 35.0859V32.4316C42.2075 32.416 42.2106 32.4007 42.2166 32.3864C42.2224 32.372 42.2312 32.359 42.2421 32.3481C42.2532 32.3371 42.2662 32.3284 42.2805 32.3224C42.2948 32.3165 42.3102 32.3135 42.3257 32.3135L51.2864 32.343C51.3177 32.343 51.3477 32.3554 51.3699 32.3776C51.392 32.3997 51.4044 32.4298 51.4044 32.4611L51.3684 35.0859C51.3684 35.1015 51.3653 35.1168 51.3594 35.1311C51.3535 35.1455 51.3448 35.1585 51.3338 35.1695C51.3228 35.1805 51.3098 35.1892 51.2955 35.1951C51.2811 35.201 51.2657 35.2041 51.2503 35.2041H48.4023C48.3709 35.2041 48.3409 35.2165 48.3188 35.2387C48.2966 35.2609 48.2842 35.2909 48.2842 35.3222Z" fill="white"/>
<path id="Vector_12" d="M55.1678 35.3163V36.7337C55.1678 36.7633 55.1795 36.7917 55.2005 36.8127C55.2214 36.8335 55.2497 36.8453 55.2793 36.8453H59.3315C59.3464 36.8453 59.3612 36.8483 59.375 36.8541C59.3887 36.8599 59.4011 36.8684 59.4115 36.8791C59.422 36.8899 59.4301 36.9026 59.4355 36.9164C59.441 36.9303 59.4435 36.9453 59.443 36.9602L59.4037 39.608C59.4028 39.6365 59.3912 39.6635 59.371 39.6836C59.3509 39.7037 59.3238 39.7155 59.2954 39.7163H55.2793C55.2497 39.7163 55.2214 39.728 55.2005 39.7489C55.1795 39.7698 55.1678 39.7982 55.1678 39.8278V41.5734C55.1678 41.603 55.1795 41.6314 55.2005 41.6522C55.2214 41.6732 55.2497 41.6849 55.2793 41.6849H59.8138C59.8434 41.6849 59.8717 41.6967 59.8927 41.7176C59.9136 41.7385 59.9254 41.7669 59.9254 41.7965V44.4444C59.9254 44.4739 59.9136 44.5023 59.8927 44.5232C59.8717 44.5441 59.8434 44.5559 59.8138 44.5559H52.2312C52.2016 44.5559 52.1732 44.5441 52.1523 44.5232C52.1314 44.5023 52.1196 44.4739 52.1196 44.4444L52.1327 32.406C52.1327 32.3764 52.1445 32.348 52.1654 32.3271C52.1863 32.3062 52.2147 32.2944 52.2443 32.2944L59.7317 32.3502C59.7613 32.3502 59.7897 32.362 59.8107 32.3829C59.8315 32.4038 59.8434 32.4322 59.8434 32.4618V35.0932C59.8434 35.1228 59.8315 35.1512 59.8107 35.1721C59.7897 35.193 59.7613 35.2047 59.7317 35.2047H55.2793C55.2497 35.2047 55.2214 35.2165 55.2005 35.2374C55.1795 35.2583 55.1678 35.2867 55.1678 35.3163Z" fill="white"/>
<path id="Vector_13" d="M82.6798 38.2335C82.0302 39.2834 80.7834 41.9148 79.8942 42.5744C79.8386 42.6153 79.7751 42.6441 79.7078 42.659C79.6404 42.6739 79.5707 42.6746 79.503 42.661C79.4353 42.6474 79.3713 42.6198 79.3149 42.5801C79.2586 42.5403 79.2111 42.4892 79.1757 42.43L76.7345 38.3352C76.7205 38.3103 76.6986 38.2908 76.6723 38.2797C76.6459 38.2687 76.6166 38.2669 76.5891 38.2744C76.5615 38.282 76.5374 38.2985 76.5203 38.3214C76.5032 38.3443 76.4943 38.3723 76.495 38.4009V44.3921C76.495 44.5015 76.4403 44.5562 76.3309 44.5562H73.624C73.5806 44.5562 73.5388 44.5388 73.508 44.5081C73.4773 44.4773 73.46 44.4356 73.46 44.3921V32.4981C73.46 32.3887 73.5147 32.334 73.624 32.334H76.3441C76.46 32.334 76.5486 32.3844 76.6098 32.485L79.4972 37.2852C79.5135 37.3124 79.5366 37.3349 79.5642 37.3505C79.5918 37.3661 79.623 37.3743 79.6547 37.3743C79.6864 37.3743 79.7176 37.3661 79.7452 37.3505C79.7728 37.3349 79.7958 37.3124 79.8121 37.2852L82.6996 32.4916C82.7717 32.3691 82.8789 32.3089 83.0211 32.3111L85.6492 32.3439C85.7805 32.3461 85.8461 32.4139 85.8461 32.5474V44.3921C85.8461 44.4356 85.8288 44.4773 85.798 44.5081C85.7673 44.5388 85.7256 44.5562 85.6821 44.5562H82.9752C82.8658 44.5562 82.8111 44.5015 82.8111 44.3921V38.2696C82.8118 38.2542 82.8074 38.2393 82.7984 38.2271C82.7896 38.2149 82.7766 38.206 82.7616 38.2018C82.7467 38.1978 82.7306 38.1987 82.7158 38.2043C82.701 38.21 82.6884 38.2203 82.6798 38.2335Z" fill="white"/>
<path id="Vector_14" d="M64.5622 42.5443L63.9124 44.4342C63.9002 44.4696 63.8772 44.5004 63.8465 44.5222C63.816 44.5439 63.7794 44.5556 63.7419 44.5555H60.8282C60.7991 44.5558 60.7703 44.5489 60.7444 44.5355C60.7184 44.5222 60.6961 44.5028 60.6793 44.4789C60.6625 44.4551 60.6518 44.4274 60.648 44.3985C60.6442 44.3696 60.6475 44.3401 60.6576 44.3128L65.0018 32.4516C65.0144 32.4173 65.0372 32.3876 65.067 32.3665C65.097 32.3454 65.1325 32.3339 65.1691 32.3335H68.1812C68.2178 32.3339 68.2533 32.3454 68.2832 32.3665C68.3131 32.3876 68.3359 32.4173 68.3485 32.4516L72.6862 44.3095C72.6962 44.3369 72.6995 44.3663 72.6957 44.3952C72.6919 44.4242 72.6812 44.4518 72.6644 44.4756C72.6477 44.4995 72.6253 44.5189 72.5994 44.5323C72.5735 44.5456 72.5447 44.5525 72.5155 44.5523L69.6183 44.5555C69.5812 44.5558 69.5448 44.5447 69.5143 44.5235C69.4838 44.5023 69.4605 44.4723 69.4477 44.4374L68.7685 42.541C68.7556 42.5061 68.7324 42.4761 68.7019 42.455C68.6713 42.4338 68.635 42.4226 68.5978 42.4229H64.7327C64.6952 42.4229 64.6586 42.4345 64.6281 42.4563C64.5974 42.4781 64.5744 42.5088 64.5622 42.5443ZM65.7203 39.4042C65.7144 39.4192 65.7123 39.4354 65.7141 39.4513C65.7159 39.4673 65.7216 39.4826 65.7307 39.4958C65.7397 39.5091 65.7519 39.52 65.7661 39.5275C65.7804 39.5349 65.7961 39.5388 65.8122 39.5388L67.4889 39.5617C67.5046 39.5616 67.5199 39.5577 67.5338 39.5504C67.5477 39.5431 67.5596 39.5326 67.5686 39.5197C67.5775 39.507 67.5833 39.4921 67.5855 39.4766C67.5875 39.4611 67.586 39.4453 67.5807 39.4305L66.7769 37.1468C66.7704 37.1272 66.7579 37.11 66.7411 37.0978C66.7243 37.0857 66.704 37.0792 66.6833 37.0792C66.6626 37.0792 66.6425 37.0857 66.6256 37.0978C66.6088 37.11 66.5963 37.1272 66.5898 37.1468L65.7203 39.4042Z" fill="white"/>
</g>
</g>
</g>
</g>
<defs>
<linearGradient id="paint0_linear_1720_56983" x1="-2.73042" y1="-1.59709" x2="50.2756" y2="34.8133" gradientUnits="userSpaceOnUse">
<stop stop-color="#FFDF00"/>
<stop offset="1" stop-color="#FFB800"/>
</linearGradient>
<linearGradient id="paint1_linear_1720_56983" x1="25.4151" y1="-0.645977" x2="40.6648" y2="5.31405" gradientUnits="userSpaceOnUse">
<stop stop-color="#FFDF00"/>
<stop offset="1" stop-color="#FFB800"/>
</linearGradient>
<linearGradient id="paint2_linear_1720_56983" x1="15.7759" y1="18.7405" x2="34.7785" y2="32.6617" gradientUnits="userSpaceOnUse">
<stop stop-color="#FFDF00"/>
<stop offset="1" stop-color="#FFB800"/>
</linearGradient>
<clipPath id="clip0_1720_56983">
<rect width="144.403" height="48.1343" fill="white" transform="translate(0.862305)"/>
</clipPath>
</defs>
</svg>
