<svg width="180" height="49" viewBox="0 0 180 49" fill="none" xmlns="http://www.w3.org/2000/svg">
<g id="gl_logo" clip-path="url(#clip0_1720_56975)">
<g id="Clip path group">
<mask id="mask0_1720_56975" style="mask-type:luminance" maskUnits="userSpaceOnUse" x="0" y="0" width="180" height="49">
<g id="clip0_133_7">
<path id="Vector" d="M179.862 0H0V48.1343H179.862V0Z" fill="white"/>
</g>
</mask>
<g mask="url(#mask0_1720_56975)">
<g id="Group">
<path id="Vector_2" fill-rule="evenodd" clip-rule="evenodd" d="M43.9517 37.0498H47.5856V10.0799H56.8688V7.0831H43.9517V37.0498ZM62.9144 35.4741C63.4427 34.5704 63.933 33.5405 64.1699 32.5065C64.5069 31.0694 64.5626 28.4922 64.647 28.1608C64.7033 27.9398 64.7315 21.9129 64.7315 10.0799L71.8164 10.0933V37.1948H75.4022V7.0831H61.3618V28.1608C61.3351 29.299 61.0515 30.7566 60.8002 31.8632C60.6251 32.6379 60.6307 32.9134 60.2385 33.5921C59.95 34.096 59.0856 34.6457 58.5926 34.9155C58.1193 35.1511 57.602 35.2697 57.0795 35.2624V37.1948C57.2975 37.2911 57.5245 37.3632 57.7564 37.4098C58.3154 37.5637 58.8915 37.6362 59.4688 37.625C60.1172 37.6221 60.7544 37.4447 61.321 37.1093C61.9712 36.7121 62.5185 36.1505 62.9144 35.4741ZM85.0591 20.5877C84.2085 19.6445 83.7828 18.0436 83.7821 15.785C83.7821 13.5275 84.2076 11.927 85.0586 10.9834C85.9096 10.0398 87.2683 9.56823 89.1348 9.56861H92.0164V22.0031H89.1348C87.2686 22.0025 85.9098 21.531 85.0591 20.5877ZM83.7821 25.6014C83.1728 26.5974 82.7535 27.703 82.5464 28.8597L81.7232 32.5041C81.5548 33.2618 81.2003 33.9629 80.6936 34.5406C80.0705 35.0977 79.2522 35.3684 78.4292 35.2898V37.2227C78.6854 37.3107 78.9468 37.3824 79.2116 37.4371C79.7622 37.5873 80.3301 37.6594 80.8998 37.6514C83.2324 37.6514 84.8106 35.9364 85.6343 32.5065L86.4581 28.862C86.8142 27.3759 87.3494 26.3613 88.0638 25.8181C88.7241 25.294 89.5343 25.0078 90.3692 25.0037H92.0159V37.2227H95.7225V7.64037C94.6926 7.32894 93.639 7.10668 92.573 6.9759C91.4318 6.84241 90.284 6.77795 89.1354 6.78285C87.7202 6.75468 86.3078 6.92057 84.9356 7.27615C83.8841 7.5468 82.9191 8.09354 82.1359 8.86266C81.39 9.64707 80.8509 10.6132 80.569 11.6703C80.2152 13.0113 80.0489 14.3971 80.0753 15.7861C80.0548 16.9354 80.2217 18.0801 80.569 19.173C80.8555 20.0629 81.2872 20.8965 81.8455 21.6382C82.332 22.28 82.9416 22.8125 83.6366 23.2028C84.2586 23.5567 84.9331 23.8029 85.6331 23.9319V24.1047C84.8697 24.3721 84.2162 24.9005 83.7821 25.6014ZM113.765 7.0831V20.3543H104.995V7.0831H101.236V37.0498H104.995V23.3512H113.765V37.0498H117.523V7.0831H113.765ZM126.857 22.9229H135.941V19.9261H126.857V10.0799H137.18V7.0831H123.139V37.0498H137.178V34.0536H126.857V22.9229ZM157.915 43.3889H160.206V33.9923H157.499V7.0831H153.749V33.9923H145.422V7.0831H141.673V36.9818H156.665C156.784 39.1661 157.205 41.3227 157.915 43.3889ZM170.652 22.0031C172.519 22.0031 173.877 22.4817 174.728 23.4391C175.579 24.3965 176.004 26.0615 176.004 28.4338C176.004 30.8065 175.579 32.4715 174.728 33.4284C173.877 34.3855 172.519 34.8643 170.652 34.8651H167.772V22.0031H170.652ZM167.862 19.3418V7.0831H164.137V36.7625C165.172 37.0755 166.231 37.2985 167.302 37.4292C168.449 37.5631 169.604 37.6279 170.758 37.6229C172.181 37.6525 173.601 37.4786 174.977 37.1065C176.033 36.8218 177.002 36.2668 177.791 35.4935C178.545 34.6944 179.087 33.7094 179.363 32.6334C179.721 31.2443 179.887 29.8113 179.86 28.3751C179.86 24.9339 179.218 22.4964 177.936 21.0626C176.653 19.6287 174.673 18.9118 171.998 18.9118C171.28 18.9169 170.563 18.9601 169.849 19.0413C169.183 19.1063 168.519 19.2069 167.862 19.3418Z" fill="white"/>
<path id="Vector_3" d="M21.4285 6.77979C11.6325 10.0712 3.36929 16.7811 0 26.7793C3.3308 36.6634 11.5164 43.4482 21.4285 46.7787C30.2426 40.0085 35.049 34.5714 38.5848 26.7793C33.5096 23.3845 31.3777 21.6369 27.2629 16.3838C21.7497 18.9346 16.9511 21.9073 12.7001 26.6708C14.2256 28.8354 16.7584 30.8563 18.8062 32.5164C21.7905 30.3315 24.0664 28.2026 25.5406 26.3759C26.4651 27.5013 27.5073 28.25 28.5 28.8759C25.9358 33.222 23.058 35.6082 19.5043 37.8873C14.1667 35.0721 9.87617 30.1994 7.79087 26.0793C11.6994 19.6593 17.8299 15.3245 24.7958 12.9086C23.6673 10.9395 22.1881 9.10565 21.4285 6.77979Z" fill="#FFD001"/>
</g>
</g>
</g>
</g>
<defs>
<clipPath id="clip0_1720_56975">
<rect width="179.862" height="48.1343" fill="white"/>
</clipPath>
</defs>
</svg>
