<svg width="52" height="52" viewBox="0 0 52 52" fill="none" xmlns="http://www.w3.org/2000/svg">
<g id="drapal/004-padlock">
<path id="Vector" d="M44.3574 18.3574H42.8213V16.8213C42.8213 7.54599 35.2753 0 26 0C16.7247 0 9.17871 7.54599 9.17871 16.8213V18.3574H7.64258C6.80123 18.3574 6.11914 19.0395 6.11914 19.8809V50.4766C6.11914 51.3179 6.80123 52 7.64258 52H44.3574C45.1988 52 45.8809 51.3179 45.8809 50.4766V19.8809C45.8809 19.0395 45.1988 18.3574 44.3574 18.3574ZM33.6807 18.3574H18.3193V16.8213C18.3193 12.5861 21.7648 9.14062 26 9.14062C30.2352 9.14062 33.6807 12.5861 33.6807 16.8213V18.3574ZM12.2256 16.8213C12.2256 9.22604 18.4048 3.04688 26 3.04688C33.5952 3.04688 39.7744 9.22604 39.7744 16.8213V18.3574H36.7275V16.8213C36.7275 10.9061 31.9152 6.09375 26 6.09375C20.0848 6.09375 15.2725 10.9061 15.2725 16.8213V18.3574H12.2256V16.8213ZM42.834 48.9531H9.16602V21.4043H42.834V48.9531Z" fill="#43BBED"/>
<path id="Vector_2" d="M24.4766 36.4408V41.2979C24.4766 42.1392 25.1587 42.8213 26 42.8213C26.8413 42.8213 27.5234 42.1392 27.5234 41.2979V36.4408C29.3037 35.8113 30.583 34.1123 30.583 32.1191C30.583 29.5921 28.5271 27.5361 26 27.5361C23.4729 27.5361 21.417 29.5921 21.417 32.1191C21.417 34.1122 22.6963 35.8113 24.4766 36.4408ZM26 30.583C26.847 30.583 27.5361 31.2721 27.5361 32.1191C27.5361 32.9662 26.847 33.6553 26 33.6553C25.153 33.6553 24.4639 32.9662 24.4639 32.1191C24.4639 31.2721 25.153 30.583 26 30.583Z" fill="#43BBED"/>
</g>
</svg>
