<svg width="52" height="52" viewBox="0 0 52 52" fill="none" xmlns="http://www.w3.org/2000/svg">
<g id="drapal/005-browser" clip-path="url(#clip0_1948_90)">
<path id="Vector" d="M32.0996 0C21.1264 0 12.1992 8.92725 12.1992 19.9004C12.1992 23.721 13.2823 27.2929 15.1564 30.3269L1.34968 44.1336C0.479336 45.0039 0 46.1611 0 47.392C0 48.6229 0.479336 49.78 1.34968 50.6503C2.22002 51.5207 3.37721 52 4.60802 52C5.83883 52 6.99602 51.5207 7.86636 50.6503L21.6731 36.8437C24.7072 38.7177 28.2791 39.8009 32.0997 39.8009C43.0729 39.8009 52.0001 30.8737 52.0001 19.9005C52 8.92725 43.0728 0 32.0996 0ZM32.0996 36.7373C22.8156 36.7373 15.2627 29.1844 15.2627 19.9004C15.2627 10.6165 22.8156 3.0635 32.0996 3.0635C41.3834 3.0635 48.9365 10.6165 48.9365 19.9004C48.9365 29.1844 41.3834 36.7373 32.0996 36.7373ZM5.70016 48.4841C5.40851 48.7759 5.02067 48.9365 4.60812 48.9365C4.19557 48.9365 3.80773 48.7758 3.51598 48.4841C3.22434 48.1924 3.06361 47.8045 3.06361 47.392C3.06361 46.9794 3.22424 46.5916 3.51598 46.2999L8.32191 41.4939L10.5062 43.6782L5.70016 48.4841ZM12.6723 41.512L10.488 39.3277L16.9851 32.8306C17.6559 33.6137 18.3863 34.3441 19.1694 35.0149L12.6723 41.512Z" fill="#43BBED"/>
<path id="Vector_2" d="M32.0997 6.0498C24.4624 6.0498 18.249 12.2632 18.249 19.9005C18.249 27.5378 24.4624 33.7512 32.0997 33.7512C39.737 33.7512 45.9504 27.5378 45.9504 19.9005C45.9504 12.2632 39.737 6.0498 32.0997 6.0498ZM42.7777 18.3688H38.3629C38.2213 15.3378 37.6599 12.3928 36.695 10.1425C39.9096 11.6624 42.2574 14.7248 42.7777 18.3688ZM32.0997 30.6877C31.2043 30.6877 29.1965 27.542 28.9018 21.4323H35.2976C35.0031 27.542 32.9952 30.6877 32.0997 30.6877ZM28.9018 18.3688C29.1965 12.259 31.2043 9.11331 32.0997 9.11331C32.9952 9.11331 35.003 12.259 35.2976 18.3688H28.9018ZM27.5046 10.1425C26.5396 12.3928 25.9782 15.3378 25.8367 18.3688H21.4219C21.9421 14.7248 24.2898 11.6624 27.5046 10.1425ZM21.4218 21.4323H25.8366C25.9781 24.4632 26.5395 27.4083 27.5045 29.6586C24.2899 28.1386 21.9421 25.0762 21.4218 21.4323ZM36.695 29.6586C37.66 27.4083 38.2213 24.4632 38.3629 21.4323H42.7777C42.2574 25.0762 39.9096 28.1386 36.695 29.6586Z" fill="#43BBED"/>
</g>
<defs>
<clipPath id="clip0_1948_90">
<rect width="52" height="52" fill="white"/>
</clipPath>
</defs>
</svg>
