<svg width="52" height="52" viewBox="0 0 52 52" fill="none" xmlns="http://www.w3.org/2000/svg">
<g id="drapal/006-idea">
<path id="Vector" d="M48.3777 18.5632H45.369C44.9291 16.9612 44.2932 15.4275 43.469 13.9809L45.5978 11.852C46.1928 11.2571 46.1928 10.2925 45.5978 9.69759L40.2035 4.3033C39.6087 3.70835 38.6441 3.70835 38.0491 4.3033L35.9202 6.43216C34.4736 5.60798 32.9399 4.97209 31.338 4.53223V1.52344C31.338 0.682094 30.6559 0 29.8145 0H22.1858C21.3445 0 20.6624 0.682094 20.6624 1.52344V4.53223C19.0605 4.97209 17.5268 5.60798 16.0801 6.43216L13.9513 4.3033C13.3564 3.70835 12.3918 3.70835 11.7968 4.3033L6.40243 9.69759C5.80747 10.2924 5.80747 11.2571 6.40243 11.852L8.53128 13.9809C7.7071 15.4275 7.07111 16.9612 6.63125 18.5632H3.62256C2.78121 18.5632 2.09912 19.2453 2.09912 20.0866V27.7154C2.09912 28.5567 2.78121 29.2388 3.62256 29.2388H6.63125C7.07111 30.8408 7.7071 32.3746 8.53118 33.8211L6.40243 35.95C5.80747 36.5449 5.80747 37.5095 6.40243 38.1044L11.7967 43.4988C12.0824 43.7845 12.4699 43.9451 12.8739 43.9451C13.2779 43.9451 13.6655 43.7845 13.9511 43.4988L16.08 41.37C16.8173 41.79 17.5774 42.1605 18.3574 42.4817V44.3574C18.3574 48.5716 21.7859 52 26 52C30.2142 52 33.6426 48.5716 33.6426 44.3574V42.4817C34.4226 42.1604 35.1828 41.7899 35.92 41.37L38.049 43.4988C38.3347 43.7845 38.7222 43.9451 39.1262 43.9451C39.5302 43.9451 39.9177 43.7845 40.2033 43.4988L45.5976 38.1044C46.1926 37.5095 46.1926 36.5449 45.5976 35.95L43.4689 33.8211C44.293 32.3745 44.9289 30.8408 45.3688 29.2388H48.3775C49.2188 29.2388 49.9009 28.5567 49.9009 27.7154V20.0866C49.9011 19.2453 49.219 18.5632 48.3777 18.5632ZM30.5958 40.4113V40.7351H21.4044V40.4107C21.4044 36.9098 20.1526 33.5291 17.8793 30.891C16.2097 28.9534 15.2884 26.4758 15.2853 23.9146C15.2783 18.2192 19.8968 13.4101 25.5811 13.1942C28.5256 13.0816 31.3135 14.143 33.4304 16.181C35.5484 18.2202 36.715 20.9619 36.715 23.9011C36.715 26.4425 35.8094 28.9066 34.1653 30.8393C31.8634 33.5448 30.5958 36.9442 30.5958 40.4113ZM21.4044 44.3574V43.7819H30.5958V44.3574C30.5958 46.8915 28.5342 48.9531 26.0001 48.9531C23.466 48.9531 21.4044 46.8915 21.4044 44.3574ZM46.8543 26.192H44.1703C43.4489 26.192 42.8265 26.6978 42.679 27.4039C42.2454 29.4796 41.4346 31.4352 40.2692 33.2164C39.8742 33.82 39.9567 34.6178 40.4667 35.1277L42.366 37.0271L39.1262 40.267L37.2267 38.3676C36.7168 37.8576 35.9191 37.7752 35.3154 38.17C34.7982 38.5085 34.2658 38.8161 33.7204 39.0941C33.9887 36.8139 34.947 34.6222 36.4858 32.8134C38.5983 30.3303 39.7617 27.1651 39.7617 23.901C39.7617 20.126 38.2637 16.6048 35.5436 13.986C32.8246 11.3684 29.2464 10.0068 25.4654 10.1494C21.9039 10.2847 18.5728 11.7856 16.0858 14.3758C13.6003 16.9645 12.2338 20.3534 12.2383 23.9184C12.2424 27.2079 13.4259 30.3905 15.571 32.8799C17.0816 34.633 18.0214 36.8026 18.2826 39.0958C17.7362 38.8173 17.2029 38.5093 16.6846 38.1701C16.081 37.7753 15.2833 37.8576 14.7733 38.3677L12.8739 40.2671L9.63404 37.0272L11.5334 35.1278C12.0433 34.6179 12.1259 33.8201 11.7309 33.2165C10.5655 31.4353 9.7547 29.4796 9.32103 27.404C9.17366 26.6979 8.55118 26.1921 7.82979 26.1921H5.146V21.6102H7.82999C8.55139 21.6102 9.17376 21.1043 9.32123 20.3982C9.7549 18.3226 10.5657 16.367 11.7311 14.5857C12.1261 13.9822 12.0435 13.1844 11.5336 12.6744L9.63425 10.775L12.8741 7.53513L14.7735 9.43455C15.2836 9.94459 16.0813 10.0271 16.6848 9.63209C18.466 8.46655 20.4216 7.65578 22.4972 7.22221C23.2033 7.07474 23.7093 6.45227 23.7093 5.73097V3.04688H28.2911V5.73087C28.2911 6.45227 28.797 7.07464 29.5031 7.22211C31.5789 7.65568 33.5343 8.46645 35.3155 9.63198C35.919 10.027 36.7169 9.94449 37.2268 9.43445L39.1263 7.53502L42.3661 10.7749L40.4668 12.6743C39.9568 13.1842 39.8743 13.982 40.2693 14.5856C41.4347 16.3669 42.2455 18.3225 42.6791 20.3981C42.8265 21.1042 43.449 21.6101 44.1704 21.6101H46.8544V26.192H46.8543Z" fill="#43BBED"/>
<path id="Vector_2" d="M19.8045 22.3774C19.0076 22.3774 18.2442 23.0781 18.2811 23.9009C18.318 24.7263 18.9505 25.4243 19.8045 25.4243C20.6014 25.4243 21.3648 24.7236 21.3279 23.9009C21.291 23.0755 20.6585 22.3774 19.8045 22.3774Z" fill="#43BBED"/>
<path id="Vector_3" d="M25.9998 22.3774C25.203 22.3774 24.4395 23.0781 24.4764 23.9009C24.5133 24.7263 25.1458 25.4243 25.9998 25.4243C26.7967 25.4243 27.5601 24.7236 27.5233 23.9009C27.4863 23.0755 26.8539 22.3774 25.9998 22.3774Z" fill="#43BBED"/>
<path id="Vector_4" d="M32.1951 22.3774C31.3983 22.3774 30.6348 23.0781 30.6717 23.9009C30.7087 24.7263 31.3411 25.4243 32.1951 25.4243C32.992 25.4243 33.7554 24.7236 33.7186 23.9009C33.6816 23.0755 33.0492 22.3774 32.1951 22.3774Z" fill="#43BBED"/>
</g>
</svg>
