<svg width="52" height="52" viewBox="0 0 52 52" fill="none" xmlns="http://www.w3.org/2000/svg">
<g id="drapal/012-api" clip-path="url(#clip0_1948_251)">
<path id="Vector" d="M50.4766 20.3044H47.0764C46.5881 18.4909 45.8691 16.7567 44.9291 15.1256L47.3349 12.7198C47.9299 12.1248 47.9299 11.1603 47.3349 10.5653L41.4347 4.66507C40.8398 4.07012 39.8752 4.07012 39.2802 4.66507L36.8743 7.07088C35.2432 6.13092 33.509 5.41186 31.6955 4.92365V1.52344C31.6955 0.682094 31.0134 0 30.1721 0H21.8278C20.9865 0 20.3044 0.682094 20.3044 1.52344V4.92365C18.491 5.41186 16.7567 6.13092 15.1256 7.07088L12.7198 4.66507C12.1249 4.07012 11.1603 4.07012 10.5653 4.66507L4.66507 10.5653C4.07012 11.1603 4.07012 12.1248 4.66507 12.7198L7.07088 15.1256C6.13092 16.7567 5.41186 18.4909 4.92365 20.3044H1.52344C0.682094 20.3044 0 20.9865 0 21.8278V30.1721C0 31.0134 0.682094 31.6955 1.52344 31.6955H4.92365C5.41186 33.5089 6.13092 35.2432 7.07088 36.8743L4.66507 39.2801C4.07012 39.8751 4.07012 40.8396 4.66507 41.4346L10.5653 47.3348C11.1602 47.9298 12.1248 47.9298 12.7198 47.3348L15.1256 44.929C16.7568 45.8691 18.4907 46.588 20.3044 47.0764V50.4766C20.3044 51.3179 20.9865 52 21.8278 52H30.1721C31.0134 52 31.6955 51.3179 31.6955 50.4766V47.0764C33.5091 46.5881 35.2431 45.8692 36.8743 44.929L39.2801 47.3348C39.875 47.9298 40.8396 47.9298 41.4346 47.3348L47.3348 41.4346C47.9298 40.8396 47.9298 39.8751 47.3348 39.2801L44.929 36.8743C45.869 35.2432 46.588 33.509 47.0762 31.6955H50.4766C51.3179 31.6955 52 31.0134 52 30.1721V21.8278C52 20.9865 51.3179 20.3044 50.4766 20.3044ZM48.9531 28.6487H45.8745C45.1531 28.6487 44.5307 29.1546 44.3832 29.8607C43.9054 32.1484 43.0117 34.304 41.7271 36.2676C41.3322 36.871 41.4146 37.6688 41.9247 38.1789L44.1033 40.3575L40.3575 44.1033L38.1789 41.9247C37.6688 41.4146 36.8712 41.3323 36.2676 41.7271C34.3041 43.0117 32.1486 43.9054 29.8607 44.3832C29.1546 44.5307 28.6487 45.1532 28.6487 45.8745V48.9531H23.3512V45.8745C23.3512 45.1532 22.8454 44.5307 22.1393 44.3832C19.8515 43.9054 17.6959 43.0117 15.7324 41.7271C15.1292 41.3322 14.3313 41.4145 13.8211 41.9247L11.6425 44.1033L7.89669 40.3575L10.0753 38.1789C10.5854 37.6689 10.6678 36.8712 10.2729 36.2676C8.98828 34.3041 8.09453 32.1485 7.61678 29.8607C7.46931 29.1546 6.84684 28.6487 6.12554 28.6487H3.04688V23.3512H6.12554C6.84694 23.3512 7.46931 22.8454 7.61678 22.1393C8.09463 19.8515 8.98828 17.6959 10.2729 15.7325C10.6679 15.129 10.5855 14.3312 10.0754 13.8212L7.89679 11.6426L11.6426 7.89679L13.8212 10.0754C14.3313 10.5855 15.129 10.6678 15.7325 10.273C17.696 8.98838 19.8516 8.09463 22.1394 7.61688C22.8455 7.46941 23.3514 6.84694 23.3514 6.12564V3.04688H28.6487V6.12554C28.6487 6.84694 29.1546 7.46931 29.8607 7.61678C32.1484 8.09463 34.304 8.98828 36.2676 10.2729C36.871 10.6678 37.6688 10.5855 38.1789 10.0753L40.3575 7.89669L44.1033 11.6425L41.9247 13.8211C41.4146 14.3311 41.3322 15.1289 41.7272 15.7324C43.0118 17.6958 43.9055 19.8514 44.3833 22.1392C44.5308 22.8453 45.1533 23.3511 45.8746 23.3511H48.9531V28.6487Z" fill="#43BBED"/>
<path id="Vector_2" d="M26 11.1719C17.8237 11.1719 11.1719 17.8237 11.1719 26C11.1719 34.1763 17.8237 40.8281 26 40.8281C34.1763 40.8281 40.8281 34.1763 40.8281 26C40.8281 17.8237 34.1763 11.1719 26 11.1719ZM26 37.7812C19.5039 37.7812 14.2188 32.4961 14.2188 26C14.2188 19.5039 19.5039 14.2188 26 14.2188C32.4961 14.2188 37.7812 19.5039 37.7812 26C37.7812 32.4961 32.4961 37.7812 26 37.7812Z" fill="#43BBED"/>
<path id="Vector_3" d="M19.8809 23.3467H28.6797L28.2148 23.8591C27.6495 24.4822 27.6962 25.4457 28.3193 26.011C28.6111 26.2757 28.9773 26.4062 29.3425 26.4062C29.7573 26.4062 30.1706 26.2378 30.4712 25.9065L33.2472 22.8469C33.7741 22.2662 33.7741 21.3803 33.2472 20.7995L30.4712 17.74C29.9058 17.1169 28.9424 17.0701 28.3193 17.6355C27.6962 18.2009 27.6494 19.1643 28.2148 19.7874L28.6797 20.2998H19.8809C19.0395 20.2998 18.3574 20.9818 18.3574 21.8232C18.3574 22.6645 19.0395 23.3467 19.8809 23.3467Z" fill="#43BBED"/>
<path id="Vector_4" d="M32.1189 28.6533H23.3201L23.785 28.1409C24.3503 27.5178 24.3036 26.5543 23.6805 25.989C23.0574 25.4236 22.0939 25.4704 21.5286 26.0935L18.7526 29.1531C18.2257 29.7338 18.2257 30.6197 18.7526 31.2005L21.5286 34.26C21.8293 34.5914 22.2425 34.7597 22.6573 34.7597C23.0224 34.7597 23.3888 34.6292 23.6805 34.3645C24.3036 33.7991 24.3504 32.8357 23.785 32.2126L23.3201 31.7003H32.1189C32.9603 31.7003 33.6424 31.0182 33.6424 30.1768C33.6424 29.3355 32.9603 28.6533 32.1189 28.6533Z" fill="#43BBED"/>
</g>
<defs>
<clipPath id="clip0_1948_251">
<rect width="52" height="52" fill="white"/>
</clipPath>
</defs>
</svg>
