<svg width="52" height="52" viewBox="0 0 52 52" fill="none" xmlns="http://www.w3.org/2000/svg">
<g id="drapal/016-settings" clip-path="url(#clip0_1948_83)">
<path id="Vector" d="M10.6895 21.6783V7.64258C10.6895 6.80123 10.0074 6.11914 9.16602 6.11914C8.32467 6.11914 7.64258 6.80123 7.64258 7.64258V21.6783C5.86229 22.3078 4.58301 24.0069 4.58301 26C4.58301 27.9931 5.86229 29.6922 7.64258 30.3217V44.3574C7.64258 45.1988 8.32467 45.8809 9.16602 45.8809C10.0074 45.8809 10.6895 45.1988 10.6895 44.3574V30.3217C12.4697 29.6922 13.749 27.9932 13.749 26C13.749 24.0068 12.4697 22.3078 10.6895 21.6783ZM9.16602 27.5361C8.31898 27.5361 7.62988 26.847 7.62988 26C7.62988 25.153 8.31898 24.4639 9.16602 24.4639C10.013 24.4639 10.7021 25.153 10.7021 26C10.7021 26.847 10.013 27.5361 9.16602 27.5361Z" fill="#43BBED"/>
<path id="Vector_2" d="M21.9121 30.857V7.64258C21.9121 6.80123 21.23 6.11914 20.3887 6.11914C19.5473 6.11914 18.8652 6.80123 18.8652 7.64258V30.857C17.0849 31.4865 15.8057 33.1855 15.8057 35.1787C15.8057 37.1719 17.0849 38.8709 18.8652 39.5004V44.3574C18.8652 45.1988 19.5473 45.8809 20.3887 45.8809C21.23 45.8809 21.9121 45.1988 21.9121 44.3574V39.5004C23.6924 38.8709 24.9717 37.1719 24.9717 35.1787C24.9717 33.1855 23.6924 31.4865 21.9121 30.857ZM20.3887 36.7148C19.5416 36.7148 18.8525 36.0257 18.8525 35.1787C18.8525 34.3317 19.5416 33.6426 20.3887 33.6426C21.2357 33.6426 21.9248 34.3317 21.9248 35.1787C21.9248 36.0257 21.2357 36.7148 20.3887 36.7148Z" fill="#43BBED"/>
<path id="Vector_3" d="M33.1348 12.4996V7.64258C33.1348 6.80123 32.4527 6.11914 31.6113 6.11914C30.77 6.11914 30.0879 6.80123 30.0879 7.64258V12.4996C28.3076 13.1291 27.0283 14.8281 27.0283 16.8213C27.0283 18.8145 28.3076 20.5135 30.0879 21.143V44.3574C30.0879 45.1988 30.77 45.8809 31.6113 45.8809C32.4527 45.8809 33.1348 45.1988 33.1348 44.3574V21.143C34.9151 20.5135 36.1943 18.8145 36.1943 16.8213C36.1943 14.8281 34.9151 13.1291 33.1348 12.4996ZM31.6113 18.3574C30.7643 18.3574 30.0752 17.6683 30.0752 16.8213C30.0752 15.9743 30.7643 15.2852 31.6113 15.2852C32.4584 15.2852 33.1475 15.9743 33.1475 16.8213C33.1475 17.6683 32.4584 18.3574 31.6113 18.3574Z" fill="#43BBED"/>
<path id="Vector_4" d="M44.3574 30.857V7.64258C44.3574 6.80123 43.6753 6.11914 42.834 6.11914C41.9926 6.11914 41.3105 6.80123 41.3105 7.64258V30.857C39.5303 31.4865 38.251 33.1855 38.251 35.1787C38.251 37.1719 39.5303 38.8709 41.3105 39.5004V44.3574C41.3105 45.1988 41.9926 45.8809 42.834 45.8809C43.6753 45.8809 44.3574 45.1988 44.3574 44.3574V39.5004C46.1377 38.8709 47.417 37.1719 47.417 35.1787C47.417 33.1855 46.1377 31.4865 44.3574 30.857ZM42.834 36.7148C41.987 36.7148 41.2979 36.0257 41.2979 35.1787C41.2979 34.3317 41.987 33.6426 42.834 33.6426C43.681 33.6426 44.3701 34.3317 44.3701 35.1787C44.3701 36.0257 43.681 36.7148 42.834 36.7148Z" fill="#43BBED"/>
<path id="Vector_5" d="M45.8873 52H6.11274C2.74219 52 0 49.2578 0 45.8873V6.11284C0 2.74219 2.74219 0 6.11274 0H45.8872C49.2578 0 52 2.74219 52 6.11284V45.8873C52 49.2578 49.2578 52 45.8873 52ZM6.11274 3.04688C4.42223 3.04688 3.04688 4.42223 3.04688 6.11284V45.8873C3.04688 47.5778 4.42223 48.9531 6.11274 48.9531H45.8872C47.5778 48.9531 48.9531 47.5778 48.9531 45.8873V6.11284C48.9531 4.42223 47.5778 3.04688 45.8873 3.04688H6.11274Z" fill="#43BBED"/>
</g>
<defs>
<clipPath id="clip0_1948_83">
<rect width="52" height="52" fill="white"/>
</clipPath>
</defs>
</svg>
