<svg width="52" height="52" viewBox="0 0 52 52" fill="none" xmlns="http://www.w3.org/2000/svg">
<g id="drapal/018-apps" clip-path="url(#clip0_1948_186)">
<path id="Vector" d="M38.5748 0H13.4253C11.0837 0 9.17871 1.90501 9.17871 4.24663V47.7535C9.17871 50.0951 11.0837 52.0001 13.4253 52.0001H38.5748C40.9164 52.0001 42.8214 50.0951 42.8214 47.7535V4.24663C42.8213 1.90501 40.9163 0 38.5748 0ZM13.4253 3.04688H38.5748C39.2363 3.04688 39.7745 3.58505 39.7745 4.24663V6.11914H12.2257V4.24663C12.2256 3.58505 12.7638 3.04688 13.4253 3.04688ZM39.7744 42.834H36.9137V38.2383C36.9137 37.3969 36.2316 36.7148 35.3903 36.7148H28.848C28.0067 36.7148 27.3246 37.3969 27.3246 38.2383V42.834H24.4639V38.2383C24.4639 37.3969 23.7818 36.7148 22.9404 36.7148H16.3981C15.5567 36.7148 14.8746 37.3969 14.8746 38.2383V42.834H12.2256V9.16602H39.7744V42.834ZM33.8668 42.834H30.3715V39.7617H33.8668V42.834ZM21.417 42.834H17.9215V39.7617H21.417V42.834ZM38.5748 48.9531H13.4253C12.7638 48.9531 12.2256 48.4149 12.2256 47.7534V45.8809H39.7744V47.7535C39.7744 48.4149 39.2362 48.9531 38.5748 48.9531Z" fill="#43BBED"/>
<path id="Vector_2" d="M16.3979 21.4043H22.9403C23.7816 21.4043 24.4637 20.7222 24.4637 19.8809V13.7617C24.4637 12.9204 23.7816 12.2383 22.9403 12.2383H16.3979C15.5566 12.2383 14.8745 12.9204 14.8745 13.7617V19.8809C14.8745 20.7222 15.5566 21.4043 16.3979 21.4043ZM17.9214 15.2852H21.4169V18.3574H17.9214V15.2852Z" fill="#43BBED"/>
<path id="Vector_3" d="M28.8481 21.4043H35.3904C36.2317 21.4043 36.9138 20.7222 36.9138 19.8809V13.7617C36.9138 12.9204 36.2317 12.2383 35.3904 12.2383H28.8481C28.0068 12.2383 27.3247 12.9204 27.3247 13.7617V19.8809C27.3247 20.7222 28.0068 21.4043 28.8481 21.4043ZM30.3716 15.2852H33.867V18.3574H30.3716V15.2852Z" fill="#43BBED"/>
<path id="Vector_4" d="M16.3979 33.6426H22.9403C23.7816 33.6426 24.4637 32.9605 24.4637 32.1191V26C24.4637 25.1587 23.7816 24.4766 22.9403 24.4766H16.3979C15.5566 24.4766 14.8745 25.1587 14.8745 26V32.1191C14.8745 32.9605 15.5566 33.6426 16.3979 33.6426ZM17.9214 27.5234H21.4169V30.5957H17.9214V27.5234Z" fill="#43BBED"/>
<path id="Vector_5" d="M28.8481 33.6426H35.3904C36.2317 33.6426 36.9138 32.9605 36.9138 32.1191V26C36.9138 25.1587 36.2317 24.4766 35.3904 24.4766H28.8481C28.0068 24.4766 27.3247 25.1587 27.3247 26V32.1191C27.3247 32.9605 28.0068 33.6426 28.8481 33.6426ZM30.3716 27.5234H33.867V30.5957H30.3716V27.5234Z" fill="#43BBED"/>
</g>
<defs>
<clipPath id="clip0_1948_186">
<rect width="52" height="52" fill="white"/>
</clipPath>
</defs>
</svg>
