<svg width="52" height="52" viewBox="0 0 52 52" fill="none" xmlns="http://www.w3.org/2000/svg">
<g id="drapal/021-management" clip-path="url(#clip0_1948_219)">
<path id="Vector" d="M46.1304 0H5.8696C2.63311 0 0 2.63311 0 5.8696V46.1304C0 49.3669 2.63311 52 5.8696 52H46.1304C49.3669 52 52 49.3669 52 46.1304V5.8696C52 2.63311 49.3669 0 46.1304 0ZM5.8696 3.04688H46.1304C47.6868 3.04688 48.9531 4.31316 48.9531 5.8696V12.2383H3.04688V5.8696C3.04688 4.31316 4.31316 3.04688 5.8696 3.04688ZM46.1304 48.9531H5.8696C4.31316 48.9531 3.04688 47.6868 3.04688 46.1304V15.2852H48.9531V46.1304C48.9531 47.6868 47.6868 48.9531 46.1304 48.9531Z" fill="#43BBED"/>
<path id="Vector_2" d="M19.8809 9.16602H44.3574C45.1988 9.16602 45.8809 8.48392 45.8809 7.64258C45.8809 6.80123 45.1988 6.11914 44.3574 6.11914H19.8809C19.0395 6.11914 18.3574 6.80123 18.3574 7.64258C18.3574 8.48392 19.0395 9.16602 19.8809 9.16602Z" fill="#43BBED"/>
<path id="Vector_3" d="M13.7615 9.16602C14.5584 9.16602 15.3218 8.46534 15.285 7.64258C15.248 6.81718 14.6156 6.11914 13.7615 6.11914C12.9647 6.11914 12.2012 6.81982 12.2381 7.64258C12.2751 8.46798 12.9075 9.16602 13.7615 9.16602Z" fill="#43BBED"/>
<path id="Vector_4" d="M7.6424 9.16602C8.43926 9.16602 9.2027 8.46534 9.16583 7.64258C9.12887 6.81718 8.49644 6.11914 7.6424 6.11914C6.84554 6.11914 6.08209 6.81982 6.11896 7.64258C6.15593 8.46798 6.78836 9.16602 7.6424 9.16602Z" fill="#43BBED"/>
<path id="Vector_5" d="M14.7773 20.8227H12.671L11.5363 20.0216C11.2792 19.8401 10.9723 19.7427 10.6577 19.7427H7.64258C6.80123 19.7427 6.11914 20.4248 6.11914 21.2661V27.7727C6.11914 28.6141 6.80123 29.2962 7.64258 29.2962H14.7773C15.6187 29.2962 16.3008 28.6141 16.3008 27.7727V22.346C16.3008 21.5048 15.6187 20.8227 14.7773 20.8227ZM13.2539 26.2494H9.16602V22.7897H10.1741L11.3089 23.5908C11.5659 23.7723 11.8729 23.8697 12.1875 23.8697H13.2539V26.2494Z" fill="#43BBED"/>
<path id="Vector_6" d="M29.5673 20.8227H27.4611L26.3263 20.0216C26.0693 19.8401 25.7623 19.7427 25.4477 19.7427H22.4326C21.5913 19.7427 20.9092 20.4248 20.9092 21.2661V27.7727C20.9092 28.6141 21.5913 29.2962 22.4326 29.2962H29.5674C30.4087 29.2962 31.0908 28.6141 31.0908 27.7727V22.346C31.0907 21.5048 30.4086 20.8227 29.5673 20.8227ZM28.0438 26.2494H23.956V22.7897H24.9641L26.0988 23.5908C26.3559 23.7723 26.6628 23.8697 26.9774 23.8697H28.0438V26.2494Z" fill="#43BBED"/>
<path id="Vector_7" d="M44.3574 20.8227H42.2512L41.1165 20.0216C40.8594 19.8401 40.5524 19.7427 40.2378 19.7427H37.2227C36.3813 19.7427 35.6992 20.4248 35.6992 21.2661V27.7727C35.6992 28.6141 36.3813 29.2962 37.2227 29.2962H44.3574C45.1988 29.2962 45.8809 28.6141 45.8809 27.7727V22.346C45.8809 21.5048 45.1988 20.8227 44.3574 20.8227ZM42.834 26.2494H38.7461V22.7897H39.7542L40.889 23.5908C41.146 23.7723 41.453 23.8697 41.7676 23.8697H42.834V26.2494Z" fill="#43BBED"/>
<path id="Vector_8" d="M14.7773 36.0091H12.671L11.5363 35.2081C11.2792 35.0266 10.9723 34.9292 10.6578 34.9292H7.64258C6.80123 34.9292 6.11914 35.6113 6.11914 36.4526V42.9592C6.11914 43.8006 6.80123 44.4827 7.64258 44.4827H14.7773C15.6187 44.4827 16.3008 43.8006 16.3008 42.9592V37.5324C16.3008 36.6912 15.6187 36.0091 14.7773 36.0091ZM13.2539 41.4358H9.16602V37.9761H10.1742L11.309 38.7771C11.566 38.9586 11.873 39.056 12.1875 39.056H13.2539V41.4358Z" fill="#43BBED"/>
<path id="Vector_9" d="M29.5673 36.0091H27.461L26.3262 35.2081C26.0692 35.0266 25.7622 34.9292 25.4477 34.9292H22.4326C21.5913 34.9292 20.9092 35.6113 20.9092 36.4526V42.9592C20.9092 43.8006 21.5913 44.4827 22.4326 44.4827H29.5674C30.4087 44.4827 31.0908 43.8006 31.0908 42.9592V37.5324C31.0907 36.6912 30.4086 36.0091 29.5673 36.0091ZM28.0438 41.4358H23.956V37.9761H24.9642L26.0989 38.7771C26.3559 38.9586 26.6629 39.056 26.9774 39.056H28.0438V41.4358Z" fill="#43BBED"/>
<path id="Vector_10" d="M44.3574 36.0091H42.2511L41.1164 35.2081C40.8594 35.0266 40.5524 34.9292 40.2378 34.9292H37.2227C36.3813 34.9292 35.6992 35.6113 35.6992 36.4526V42.9592C35.6992 43.8006 36.3813 44.4827 37.2227 44.4827H44.3574C45.1988 44.4827 45.8809 43.8006 45.8809 42.9592V37.5324C45.8809 36.6912 45.1988 36.0091 44.3574 36.0091ZM42.834 41.4358H38.7461V37.9761H39.7543L40.8891 38.7771C41.146 38.9586 41.453 39.056 41.7676 39.056H42.834V41.4358Z" fill="#43BBED"/>
</g>
<defs>
<clipPath id="clip0_1948_219">
<rect width="52" height="52" fill="white"/>
</clipPath>
</defs>
</svg>
