<svg width="52" height="52" viewBox="0 0 52 52" fill="none" xmlns="http://www.w3.org/2000/svg">
<g id="drapal/034-coding 1" clip-path="url(#clip0_1720_56329)">
<path id="Vector" d="M22.2005 26.7221C22.4922 26.9867 22.8585 27.1172 23.2236 27.1172C23.6384 27.1172 24.0517 26.9488 24.3524 26.6174L27.1284 23.5579C27.6553 22.9771 27.6553 22.0913 27.1284 21.5106L24.3524 18.451C23.787 17.8279 22.8235 17.7809 22.2005 18.3464C21.5773 18.9118 21.5305 19.8752 22.096 20.4983L23.9432 22.5342L22.096 24.5701C21.5305 25.1933 21.5773 26.1567 22.2005 26.7221Z" fill="#43BBED"/>
<path id="Vector_2" d="M9.29033 26.6175C9.59105 26.9489 10.0042 27.1173 10.4191 27.1173C10.7842 27.1173 11.1505 26.9868 11.4422 26.7221C12.0654 26.1567 12.1122 25.1933 11.5467 24.5702L9.69952 22.5343L11.5467 20.4983C12.1121 19.8753 12.0653 18.9118 11.4422 18.3464C10.819 17.7809 9.85563 17.8279 9.29033 18.451L6.51432 21.5106C5.98741 22.0913 5.98741 22.9772 6.51432 23.5579L9.29033 26.6175Z" fill="#43BBED"/>
<path id="Vector_3" d="M14.61 27.3624C14.8287 27.4718 15.0611 27.5236 15.2901 27.5236C15.8489 27.5236 16.387 27.215 16.6539 26.6812L19.7135 20.562C20.0897 19.8094 19.7848 18.8945 19.0322 18.5181C18.2799 18.1419 17.3646 18.4468 16.9883 19.1994L13.9288 25.3185C13.5525 26.0711 13.8575 26.986 14.61 27.3624Z" fill="#43BBED"/>
<path id="Vector_4" d="M46.1304 0H5.8696C2.63311 0 0 2.63311 0 5.8696V46.1304C0 49.3669 2.63311 52 5.8696 52H46.1304C49.3669 52 52 49.3669 52 46.1304V5.8696C52 2.63311 49.3669 0 46.1304 0ZM5.8696 3.04688H46.1304C47.6868 3.04688 48.9531 4.31316 48.9531 5.8696V12.2383H3.04688V5.8696C3.04688 4.31316 4.31316 3.04688 5.8696 3.04688ZM46.1304 48.9531H5.8696C4.31316 48.9531 3.04688 47.6868 3.04688 46.1304V15.2852H48.9531V46.1304C48.9531 47.6868 47.6868 48.9531 46.1304 48.9531Z" fill="#43BBED"/>
<path id="Vector_5" d="M19.8809 9.16602H44.3574C45.1988 9.16602 45.8809 8.48392 45.8809 7.64258C45.8809 6.80123 45.1988 6.11914 44.3574 6.11914H19.8809C19.0395 6.11914 18.3574 6.80123 18.3574 7.64258C18.3574 8.48392 19.0395 9.16602 19.8809 9.16602Z" fill="#43BBED"/>
<path id="Vector_6" d="M13.7615 9.16602C14.5584 9.16602 15.3218 8.46534 15.285 7.64258C15.248 6.81718 14.6156 6.11914 13.7615 6.11914C12.9647 6.11914 12.2012 6.81982 12.2381 7.64258C12.2751 8.46798 12.9075 9.16602 13.7615 9.16602Z" fill="#43BBED"/>
<path id="Vector_7" d="M7.6424 9.16602C8.43926 9.16602 9.2027 8.46534 9.16583 7.64258C9.12887 6.81718 8.49644 6.11914 7.6424 6.11914C6.84554 6.11914 6.08209 6.81982 6.11896 7.64258C6.15593 8.46798 6.78836 9.16602 7.6424 9.16602Z" fill="#43BBED"/>
<path id="Vector_8" d="M44.3574 21.417H32.1191C31.2778 21.417 30.5957 22.0991 30.5957 22.9404C30.5957 23.7818 31.2778 24.4639 32.1191 24.4639H44.3574C45.1988 24.4639 45.8809 23.7818 45.8809 22.9404C45.8809 22.0991 45.1988 21.417 44.3574 21.417Z" fill="#43BBED"/>
<path id="Vector_9" d="M7.64258 33.6426H17.1049C17.9462 33.6426 18.6283 32.9605 18.6283 32.1191C18.6283 31.2778 17.9462 30.5957 17.1049 30.5957H7.64258C6.80123 30.5957 6.11914 31.2778 6.11914 32.1191C6.11914 32.9605 6.80123 33.6426 7.64258 33.6426Z" fill="#43BBED"/>
<path id="Vector_10" d="M44.3575 30.5957H23.2241C22.3828 30.5957 21.7007 31.2778 21.7007 32.1191C21.7007 32.9605 22.3828 33.6426 23.2241 33.6426H44.3575C45.1989 33.6426 45.881 32.9605 45.881 32.1191C45.881 31.2778 45.1989 30.5957 44.3575 30.5957Z" fill="#43BBED"/>
<path id="Vector_11" d="M44.3573 36.7148H34.895C34.0537 36.7148 33.3716 37.3969 33.3716 38.2383C33.3716 39.0796 34.0537 39.7617 34.895 39.7617H44.3573C45.1986 39.7617 45.8807 39.0796 45.8807 38.2383C45.8807 37.3969 45.1986 36.7148 44.3573 36.7148Z" fill="#43BBED"/>
<path id="Vector_12" d="M28.776 36.7148H7.64258C6.80123 36.7148 6.11914 37.3969 6.11914 38.2383C6.11914 39.0796 6.80123 39.7617 7.64258 39.7617H28.776C29.6174 39.7617 30.2994 39.0796 30.2994 38.2383C30.2994 37.3969 29.6174 36.7148 28.776 36.7148Z" fill="#43BBED"/>
<path id="Vector_13" d="M44.3573 42.834H34.895C34.0537 42.834 33.3716 43.5161 33.3716 44.3574C33.3716 45.1988 34.0537 45.8809 34.895 45.8809H44.3573C45.1986 45.8809 45.8807 45.1988 45.8807 44.3574C45.8807 43.5161 45.1986 42.834 44.3573 42.834Z" fill="#43BBED"/>
<path id="Vector_14" d="M28.776 42.834H7.64258C6.80123 42.834 6.11914 43.5161 6.11914 44.3574C6.11914 45.1988 6.80123 45.8809 7.64258 45.8809H28.776C29.6174 45.8809 30.2994 45.1988 30.2994 44.3574C30.2994 43.5161 29.6174 42.834 28.776 42.834Z" fill="#43BBED"/>
</g>
<defs>
<clipPath id="clip0_1720_56329">
<rect width="52" height="52" fill="white"/>
</clipPath>
</defs>
</svg>
