<svg width="52" height="52" viewBox="0 0 52 52" fill="none" xmlns="http://www.w3.org/2000/svg">
<g id="drapal/039-puzzle">
<path id="Vector" d="M42.25 43.7735H31.4234C30.4813 43.7735 29.5974 43.3117 29.0588 42.5382C28.5226 41.7679 28.3966 40.7835 28.7219 39.9047C28.8409 39.5833 28.9013 39.2444 28.9013 38.8971C28.9013 38.0792 28.571 37.3221 27.9713 36.7652C27.3723 36.2088 26.5898 35.937 25.7677 35.997C24.3806 36.0998 23.2332 37.219 23.0987 38.6008C23.0549 39.0505 23.1099 39.4879 23.262 39.9009C23.5871 40.7833 23.4603 41.7706 22.9225 42.5419C22.3848 43.3132 21.5025 43.7736 20.5621 43.7736H9.75007C8.90873 43.7736 8.22664 43.0915 8.22664 42.2501V31.5067C7.50646 31.8047 6.74383 31.9554 5.9555 31.9554C4.32187 31.9554 2.79803 31.3071 1.6648 30.1299C0.531972 28.9534 -0.057699 27.4048 0.00445711 25.7694C0.122777 22.655 2.65625 20.1416 5.77208 20.0473C6.62591 20.0207 7.44938 20.1715 8.22664 20.4933V9.7501C8.22664 8.90876 8.90873 8.22666 9.75007 8.22666H20.5619C21.504 8.22666 22.3879 8.68847 22.9264 9.46197C23.4625 10.2322 23.5885 11.2167 23.2632 12.0955C23.1443 12.4167 23.084 12.7557 23.084 13.103C23.084 13.9209 23.4143 14.678 24.014 15.235C24.6128 15.7912 25.3953 16.0635 26.2175 16.0031C27.6045 15.9004 28.752 14.7812 28.8864 13.3994C28.9303 12.9496 28.8754 12.5122 28.7232 12.0991C28.3981 11.2168 28.525 10.2295 29.0628 9.45821C29.6004 8.68694 30.4827 8.22656 31.4231 8.22656H42.2499C43.0912 8.22656 43.7733 8.90865 43.7733 9.75V20.2632C44.5278 19.9843 45.321 19.8597 46.136 19.8922C47.7087 19.955 49.1816 20.6195 50.2833 21.7632C51.3842 22.9061 51.9939 24.4022 51.9999 25.9761C52.0062 27.6136 51.3732 29.1542 50.2178 30.3141C49.0623 31.474 47.5242 32.1128 45.8871 32.1128C45.1593 32.1128 44.4493 31.9865 43.7732 31.7368V42.25C43.7734 43.0914 43.0913 43.7735 42.25 43.7735ZM31.661 40.7266H40.7266V31.489C40.7266 30.53 41.2013 29.6393 41.9965 29.1067C42.802 28.5671 43.8217 28.4665 44.7236 28.8375C45.0921 28.9891 45.4835 29.066 45.8873 29.066C46.7084 29.066 47.4799 28.7457 48.0594 28.1639C48.6389 27.582 48.9564 26.8093 48.9532 25.9879C48.9469 24.3699 47.6286 23.0012 46.0144 22.9367C46.0144 22.9367 46.0144 22.9367 46.0143 22.9367C45.5599 22.9181 45.1207 22.9968 44.7083 23.169C43.8207 23.5398 42.8122 23.4426 42.0103 22.9087C41.2066 22.3734 40.7267 21.4774 40.7267 20.5118V11.2734H31.6612C31.9132 12.0522 32 12.8655 31.9193 13.6948C31.7844 15.0797 31.1566 16.3824 30.1515 17.363C29.1473 18.3428 27.8302 18.9389 26.4426 19.0415C24.7659 19.1652 23.1675 18.6066 21.9408 17.4673C20.7311 16.3439 20.0373 14.7531 20.0373 13.1028C20.0373 12.4772 20.1338 11.863 20.3243 11.2733H11.2736V20.7443C11.2736 21.7386 10.7717 22.6512 9.93095 23.1855C9.10017 23.7134 8.075 23.7803 7.18816 23.3643C6.77399 23.1701 6.32752 23.0798 5.8643 23.0926C4.3435 23.1386 3.10698 24.3651 3.04919 25.8849C3.01872 26.685 3.30665 27.4421 3.85976 28.0167C4.41328 28.5916 5.15763 28.9083 5.9555 28.9083C6.38582 28.9083 6.79928 28.8171 7.1844 28.6371C8.07693 28.2199 9.10688 28.2872 9.93928 28.817C10.7748 29.3487 11.2736 30.2572 11.2736 31.2471V40.7263H20.3242C20.0724 39.9478 19.9854 39.1345 20.0661 38.3053C20.2009 36.9201 20.8288 35.6174 21.8337 34.6368C22.838 33.6572 24.1551 33.0609 25.5426 32.9582C27.2189 32.8339 28.8179 33.393 30.0447 34.5323C31.2544 35.6558 31.9481 37.2466 31.9481 38.8969C31.948 39.5228 31.8515 40.137 31.661 40.7266Z" fill="#43BBED"/>
</g>
</svg>
