<svg width="52" height="52" viewBox="0 0 52 52" fill="none" xmlns="http://www.w3.org/2000/svg">
<g id="drapal/047-smartphone" clip-path="url(#clip0_1948_16)">
<path id="Vector" d="M38.5748 0H13.4253C11.0837 0 9.17871 1.90501 9.17871 4.24663V47.7535C9.17871 50.0951 11.0837 52.0001 13.4253 52.0001H38.5748C40.9164 52.0001 42.8214 50.0951 42.8214 47.7535V4.24663C42.8213 1.90501 40.9163 0 38.5748 0ZM13.4253 3.04688H38.5748C39.2362 3.04688 39.7745 3.58505 39.7745 4.24663V6.11914H12.2257V4.24663C12.2256 3.58505 12.7638 3.04688 13.4253 3.04688ZM39.7744 42.834H12.2256V9.16602H39.7744V42.834ZM38.5748 48.9531H13.4253C12.7639 48.9531 12.2256 48.4149 12.2256 47.7534V45.8809H39.7744V47.7535C39.7744 48.4149 39.2362 48.9531 38.5748 48.9531Z" fill="#43BBED"/>
<path id="Vector_2" d="M31.3791 23.9671C31.6709 24.2317 32.0372 24.3623 32.4024 24.3623C32.8172 24.3623 33.2304 24.1939 33.531 23.8626L36.307 20.803C36.834 20.2223 36.834 19.3363 36.307 18.7556L33.531 15.696C32.9656 15.0729 32.0022 15.0261 31.3791 15.5915C30.756 16.1569 30.7092 17.1203 31.2746 17.7434L33.1218 19.7792L31.2746 21.8151C30.7092 22.4383 30.756 23.4017 31.3791 23.9671Z" fill="#43BBED"/>
<path id="Vector_3" d="M18.469 23.8624C18.7698 24.1938 19.1829 24.3621 19.5977 24.3621C19.9628 24.3621 20.3293 24.2316 20.6209 23.9669C21.244 23.4015 21.2909 22.4381 20.7255 21.815L18.8782 19.7792L20.7255 17.7434C21.2908 17.1203 21.244 16.1568 20.6209 15.5915C19.9979 15.0262 19.0343 15.0729 18.469 15.696L15.693 18.7556C15.1661 19.3363 15.1661 20.2222 15.693 20.803L18.469 23.8624Z" fill="#43BBED"/>
<path id="Vector_4" d="M23.7888 24.6076C24.0074 24.717 24.2399 24.7688 24.4688 24.7688C25.0276 24.7688 25.5657 24.4601 25.8326 23.9263L28.8922 17.8072C29.2685 17.0546 28.9634 16.1396 28.2109 15.7632C27.4584 15.3869 26.5432 15.6919 26.167 16.4445L23.1074 22.5637C22.7312 23.3162 23.0363 24.2312 23.7888 24.6076Z" fill="#43BBED"/>
<path id="Vector_5" d="M33.7908 27.6377H18.2095C17.3681 27.6377 16.686 28.3198 16.686 29.1611C16.686 30.0025 17.3681 30.6846 18.2095 30.6846H33.7909C34.6322 30.6846 35.3143 30.0025 35.3143 29.1611C35.3143 28.3198 34.6322 27.6377 33.7908 27.6377Z" fill="#43BBED"/>
<path id="Vector_6" d="M22.9406 33.7568H18.2095C17.3681 33.7568 16.686 34.4389 16.686 35.2803C16.686 36.1216 17.3681 36.8037 18.2095 36.8037H22.9406C23.7819 36.8037 24.464 36.1216 24.464 35.2803C24.464 34.4389 23.7819 33.7568 22.9406 33.7568Z" fill="#43BBED"/>
<path id="Vector_7" d="M33.7907 33.7568H29.0596C28.2182 33.7568 27.5361 34.4389 27.5361 35.2803C27.5361 36.1216 28.2182 36.8037 29.0596 36.8037H33.7907C34.632 36.8037 35.3141 36.1216 35.3141 35.2803C35.3141 34.4389 34.6321 33.7568 33.7907 33.7568Z" fill="#43BBED"/>
</g>
<defs>
<clipPath id="clip0_1948_16">
<rect width="52" height="52" fill="white"/>
</clipPath>
</defs>
</svg>
