<svg width="52" height="52" viewBox="0 0 52 52" fill="none" xmlns="http://www.w3.org/2000/svg">
<g id="drapal/048-start up" clip-path="url(#clip0_1948_35)">
<path id="Vector" d="M51.44 1.75511C51.3193 1.15206 50.848 0.680739 50.2449 0.56009C40.8266 -1.32338 31.1487 1.60653 24.357 8.39832L21.0267 11.7286C18.4569 11.0383 15.7552 10.9929 13.1549 11.6069C10.2432 12.2942 7.58602 13.7756 5.4706 15.8912L0.446189 20.9156C-0.14873 21.5105 -0.14873 22.475 0.446189 23.0699L8.02271 30.6464L7.71246 30.9568C5.37595 33.2933 3.58256 36.1833 2.52627 39.3143C1.46998 42.4453 1.14612 45.831 1.58972 49.1054C1.68173 49.7844 2.21581 50.3185 2.89482 50.4105C3.84752 50.5396 4.80946 50.6037 5.77202 50.6037C8.11767 50.6037 10.466 50.223 12.686 49.474C15.817 48.4177 18.707 46.6243 21.0434 44.2879L21.3537 43.9775L28.9302 51.5541C29.2276 51.8515 29.6174 52.0003 30.0073 52.0003C30.397 52.0003 30.787 51.8515 31.0844 51.5541L36.1088 46.5297C38.2243 44.4142 39.7057 41.757 40.393 38.8454C41.007 36.245 40.9616 33.5433 40.2713 30.9735L43.6015 27.6433C50.3934 20.8514 53.3236 11.1736 51.44 1.75511ZM18.8891 42.1333C15.1065 45.916 9.79782 47.8809 4.48763 47.5123C4.11939 42.2028 6.0841 36.8935 9.86667 33.1109L10.1769 32.8006L19.1993 41.823L18.8891 42.1333ZM12.917 24.147L19.3079 30.5379L15.7654 34.0803L9.37453 27.6895L12.917 24.147ZM24.3106 42.6255L17.9197 36.2347L21.4622 32.6922L27.853 39.083L24.3106 42.6255ZM7.62492 18.0454C10.5186 15.1517 14.4936 13.8207 18.4403 14.315L7.22021 25.5351L3.67772 21.9927L7.62492 18.0454ZM33.9547 44.3751L30.0074 48.3223L26.465 44.7798L37.685 33.5598C38.1789 37.5061 36.848 41.4817 33.9547 44.3751ZM30.0074 36.9287L23.6165 30.5379L29.5816 24.5727C30.1766 23.9778 30.1766 23.0133 29.5816 22.4184C28.9868 21.8235 28.0222 21.8235 27.4273 22.4184L21.4622 28.3835L15.0713 21.9927L26.5114 10.5526C32.3378 4.72624 40.541 2.07968 48.6343 3.36589C49.9204 11.4591 47.2738 19.6624 41.4475 25.4888L30.0074 36.9287Z" fill="#43BBED"/>
<path id="Vector_2" d="M38.0777 8.31299C36.5795 8.31299 35.1709 8.89653 34.1115 9.95597C31.9244 12.143 31.9244 15.7015 34.1115 17.8885C35.2049 18.982 36.6413 19.5287 38.0777 19.5287C39.5142 19.5287 40.9506 18.9819 42.044 17.8885C43.1035 16.829 43.687 15.4204 43.687 13.9222C43.687 12.4239 43.1035 11.0153 42.0441 9.95587C40.9846 8.89643 39.576 8.31299 38.0777 8.31299ZM39.8897 15.7341C38.8906 16.7332 37.2649 16.7332 36.2658 15.7341C35.2667 14.735 35.2667 13.1093 36.2658 12.1102C36.7498 11.6262 37.3933 11.3596 38.0776 11.3596C38.762 11.3596 39.4056 11.6262 39.8896 12.1102C40.3736 12.5942 40.6402 13.2377 40.6402 13.9221C40.6402 14.6064 40.3736 15.2501 39.8897 15.7341Z" fill="#43BBED"/>
</g>
<defs>
<clipPath id="clip0_1948_35">
<rect width="52" height="52" fill="white"/>
</clipPath>
</defs>
</svg>
