<svg width="52" height="52" viewBox="0 0 52 52" fill="none" xmlns="http://www.w3.org/2000/svg">
<g id="drapal/049-scale" clip-path="url(#clip0_1948_231)">
<path id="Vector" d="M50.4766 9.16602C51.3179 9.16602 52 8.48392 52 7.64258V1.52344C52 0.682094 51.3179 0 50.4766 0H44.3574C43.5161 0 42.834 0.682094 42.834 1.52344V3.05957H9.16602V1.52344C9.16602 0.682094 8.48392 0 7.64258 0H1.52344C0.682094 0 0 0.682094 0 1.52344V7.64258C0 8.48392 0.682094 9.16602 1.52344 9.16602H3.05957V42.834H1.52344C0.682094 42.834 0 43.5161 0 44.3574V50.4766C0 51.3179 0.682094 52 1.52344 52H7.64258C8.48392 52 9.16602 51.3179 9.16602 50.4766V48.9404H42.834V50.4766C42.834 51.3179 43.5161 52 44.3574 52H50.4766C51.3179 52 52 51.3179 52 50.4766V44.3574C52 43.5161 51.3179 42.834 50.4766 42.834H48.9404V9.16602H50.4766ZM48.9531 3.04688V6.11914H45.8809V3.04688H48.9531ZM3.04688 3.04688H6.11914V6.11914H3.04688V3.04688ZM3.04688 48.9531V45.8809H6.11914V48.9531H3.04688ZM48.9531 48.9531H45.8809V45.8809H48.9531V48.9531ZM45.8936 42.834H44.3574C43.5161 42.834 42.834 43.5161 42.834 44.3574V45.8936H9.16602V44.3574C9.16602 43.5161 8.48392 42.834 7.64258 42.834H6.10645V9.16602H7.64258C8.48392 9.16602 9.16602 8.48392 9.16602 7.64258V6.10645H42.834V7.64258C42.834 8.48392 43.5161 9.16602 44.3574 9.16602H45.8936V42.834Z" fill="#43BBED"/>
<path id="Vector_2" d="M37.375 9.17871H14.625C11.6219 9.17871 9.17871 11.6219 9.17871 14.625V37.375C9.17871 40.3781 11.6219 42.8213 14.625 42.8213H37.375C40.3781 42.8213 42.8213 40.3781 42.8213 37.375V14.625C42.8213 11.6219 40.3781 9.17871 37.375 9.17871ZM14.625 12.2256H37.375C38.698 12.2256 39.7744 13.3019 39.7744 14.625V29.7677L32.3409 21.8945C32.0495 21.5859 31.6422 21.4108 31.2179 21.4171C30.7933 21.4214 30.3899 21.6025 30.1047 21.917L21.6475 31.2412L17.9307 27.2919C17.6382 26.9811 17.2306 26.8064 16.8019 26.8127C16.3751 26.8181 15.9702 27.0023 15.6857 27.3205L12.2256 31.1898V14.625C12.2256 13.3019 13.3019 12.2256 14.625 12.2256ZM37.375 39.7744H14.625C13.3019 39.7744 12.2256 38.6981 12.2256 37.375V35.7606L16.8499 30.5893L20.5589 34.5301C20.8502 34.8396 21.2569 35.0164 21.6824 35.0094C22.1073 35.0054 22.5113 34.8243 22.7968 34.5095L31.2557 25.1833L39.7745 34.2058V37.375C39.7744 38.6981 38.698 39.7744 37.375 39.7744Z" fill="#43BBED"/>
<path id="Vector_3" d="M21.3628 25.251C24.1069 25.251 26.3394 23.0185 26.3394 20.2744C26.3394 17.5303 24.1069 15.2979 21.3628 15.2979C18.6187 15.2979 16.3862 17.5303 16.3862 20.2744C16.3862 23.0185 18.6187 25.251 21.3628 25.251ZM21.3628 18.3447C22.4269 18.3447 23.2925 19.2103 23.2925 20.2744C23.2925 21.3385 22.4269 22.2041 21.3628 22.2041C20.2987 22.2041 19.4331 21.3385 19.4331 20.2744C19.4331 19.2103 20.2987 18.3447 21.3628 18.3447Z" fill="#43BBED"/>
</g>
<defs>
<clipPath id="clip0_1948_231">
<rect width="52" height="52" fill="white"/>
</clipPath>
</defs>
</svg>
